<svg width="246" height="205" viewBox="0 0 246 205" fill="none" xmlns="http://www.w3.org/2000/svg">
<path d="M154.393 180.866C153.878 181.105 153.334 181.216 152.799 181.216C151.418 181.216 150.091 180.467 149.456 179.189L125.682 131.347V181.012C125.682 182.976 124.024 184.565 121.983 184.565C119.938 184.565 118.28 182.976 118.28 181.012V131.343L94.5075 179.189C93.8713 180.467 92.5445 181.216 91.1631 181.216C90.6282 181.216 90.0854 181.105 89.5738 180.866C87.7265 180.021 86.9435 177.902 87.8232 176.127L113.545 124.36H130.417L156.139 176.127C157.019 177.902 156.236 180.021 154.393 180.866Z" fill="#87929A"/>
<path d="M106.538 120.802V115.337L137.428 101.645V120.802H106.538Z" fill="#87929A"/>
<path d="M170.824 23.2515C167.973 24.5135 166.725 27.77 168.042 30.5098L190.52 77.3245C191.156 78.6517 192.294 79.6607 193.721 80.1646C195.145 80.6739 196.697 80.612 198.074 80.0013L200.309 79.0104C203.16 77.7484 204.408 74.4919 203.09 71.7479L180.617 24.9385C179.981 23.6103 178.843 22.6013 177.415 22.0973C176.77 21.8667 176.107 21.7567 175.439 21.7567C174.628 21.7567 173.818 21.9243 173.058 22.2607L170.824 23.2515ZM74.0833 75.266L94.0884 116.934L185.924 76.2397L165.914 34.5713L74.0833 75.266ZM43.0553 112.271C43.8249 114.669 45.0405 116.647 46.6666 118.152C47.5597 118.975 48.4216 119.55 49.2179 119.86C52.5623 121.143 56.5051 119.806 58.2012 116.815C59.3334 114.815 60.9049 114.19 62.0193 114.018C62.9769 113.872 63.9957 113.983 65.0823 114.359L57.2981 98.1406C56.8877 99.1805 56.3171 99.9941 55.5797 100.596C54.7233 101.3 53.2118 102.043 50.8951 101.574C50.4391 101.486 49.9787 101.442 49.5227 101.442C46.473 101.442 43.5758 103.425 42.567 106.384C42.0921 107.779 42.2634 109.814 43.0553 112.271ZM72.2916 120.873L65.4972 106.725L57.8875 90.8791C57.8875 90.8737 57.8875 90.8737 57.8875 90.8737L56.8142 88.6444L72.9867 81.4747L88.464 113.709L72.2916 120.873Z" fill="#87929A"/>
</svg>
