<svg width="231" height="205" viewBox="0 0 231 205" fill="none" xmlns="http://www.w3.org/2000/svg">
<path d="M115.497 25.5555C111.715 25.5555 108.654 28.6871 108.654 32.5565C108.654 35.0592 109.964 37.3559 112.075 38.6008V57.5665C107.92 58.6876 104.499 61.7231 102.868 65.7291C91.3498 64.0891 79.8177 62.2292 68.2053 60.6159C68.0445 60.5881 67.8847 60.5604 67.7238 60.5604C66.2272 60.5059 64.8643 61.4636 64.3703 62.9125L37.0034 143.424C36.8823 143.794 36.8154 144.177 36.8154 144.573C36.8154 150.972 40.8384 156.401 46.4634 159.983C52.1031 163.553 59.5056 165.576 67.6037 165.576C75.7019 165.576 83.1044 163.553 88.7305 159.983C94.3701 156.401 98.392 150.972 98.392 144.573C98.392 144.177 98.3252 143.794 98.2051 143.424L72.6815 68.3408C82.4099 69.7629 92.178 71.2673 101.973 72.6618C102.775 79.6083 108.521 85.0643 115.497 85.0643C121.175 85.0643 126.066 81.4682 128.124 76.3955C138.307 77.8444 148.53 79.4439 158.792 80.9216L132.788 157.426C132.668 157.795 132.601 158.179 132.601 158.575C132.601 164.975 136.623 170.403 142.262 173.985C147.888 177.555 155.291 179.578 163.389 179.578C171.487 179.578 178.89 177.555 184.516 173.985C190.154 170.403 194.177 164.975 194.177 158.575C194.177 158.179 194.11 157.795 193.99 157.426L166.622 76.9144C166.182 75.6289 165.059 74.7267 163.749 74.5762C152.217 72.9906 140.646 71.1168 129.02 69.4629C128.365 63.7058 124.29 59.0015 118.917 57.5665V38.6147C121.029 37.3697 122.339 35.0592 122.339 32.5565C122.339 28.6871 119.279 25.5555 115.497 25.5555ZM115.497 64.0614C119.318 64.0614 122.339 67.1513 122.339 71.0623C122.339 74.9734 119.318 78.0633 115.497 78.0633C111.674 78.0633 108.654 74.9734 108.654 71.0623C108.654 67.1513 111.674 64.0614 115.497 64.0614ZM67.6037 74.7267L90.1602 141.072H45.0472L67.6037 74.7267ZM163.389 88.7286L185.945 155.074H140.832L163.389 88.7286ZM44.5261 148.073H90.6814C89.7467 150.22 87.9284 152.257 85.1357 154.035C80.8329 156.757 74.5656 158.575 67.6037 158.575C60.6419 158.575 54.3746 156.757 50.0717 154.035C47.2791 152.257 45.4618 150.22 44.5261 148.073ZM140.311 162.076H186.467C185.531 164.222 183.714 166.259 180.921 168.037C176.618 170.759 170.351 172.577 163.389 172.577C156.427 172.577 150.16 170.759 145.857 168.037C143.064 166.259 141.247 164.222 140.311 162.076Z" fill="#87929A"/>
</svg>
