<svg width="205" height="205" viewBox="0 0 205 205" fill="none" xmlns="http://www.w3.org/2000/svg">
<path d="M102.742 23.1554C101.881 23.1276 101.045 23.5013 100.42 24.1911C99.7964 24.8819 99.447 25.8449 99.447 26.8368V54.546C99.397 54.9336 99.397 55.3361 99.447 55.7247V87.8905L70.6884 121.02L56.9713 105.217C56.3596 104.514 55.5236 104.125 54.6617 104.139C53.8257 104.154 53.0397 104.543 52.453 105.217L23.6944 138.347C22.8584 139.268 22.521 140.648 22.8213 141.928C23.1077 143.222 23.9817 144.228 25.105 144.559C26.2163 144.904 27.4138 144.516 28.2127 143.552L54.7117 113.025L66.1701 126.226L23.6944 175.159C22.8584 176.078 22.521 177.458 22.8213 178.739C23.1077 180.033 23.9817 181.04 25.105 181.369C26.2163 181.715 27.4138 181.327 28.2127 180.364L62.9753 140.317L62.8622 140.562L77.4163 148.945L89.8608 138.189L102.642 149.232L115.424 138.189L127.868 148.945L142.422 140.562L142.309 140.317L177.072 180.364C177.87 181.327 179.068 181.715 180.179 181.369C181.303 181.04 182.177 180.033 182.463 178.739C182.763 177.458 182.426 176.078 181.59 175.159L139.114 126.226L150.573 113.025L177.072 143.552C177.87 144.516 179.068 144.904 180.179 144.559C181.303 144.228 182.177 143.222 182.463 141.928C182.763 140.648 182.426 139.268 181.59 138.347L152.831 105.217C152.22 104.514 151.384 104.125 150.523 104.139C149.686 104.154 148.9 104.543 148.313 105.217L134.596 121.02L105.838 87.8905V57.6231L132.574 45.4865C133.772 44.9398 134.558 43.6319 134.596 42.1649C134.633 40.6839 133.896 39.3322 132.736 38.714L103.977 23.5013C103.591 23.2856 103.166 23.1703 102.742 23.1554ZM105.838 32.5886L123.262 41.7912L105.838 49.7146V32.5886ZM102.642 94.6203L131.887 128.297C132.124 128.728 132.437 129.087 132.798 129.375L137.729 135.026L128.542 140.317L115.424 128.987L102.642 140.03L89.8608 128.987L76.7425 140.317L67.5557 135.026L72.4865 129.346C72.8609 129.073 73.1723 128.713 73.4226 128.297L102.642 94.6203Z" fill="#87929A"/>
</svg>
