<svg width="1500" height="314" viewBox="0 0 1500 314" fill="none" xmlns="http://www.w3.org/2000/svg">
<path d="M-1 313.422C498.639 313.422 998.278 313.422 1497.92 313.422" stroke="url(#paint0_linear)" stroke-miterlimit="10"/>
<path d="M-1 304.659C252.005 304.724 504.885 303.157 757.827 301.384C867.269 300.613 977.46 300.866 1086.89 302.492C1223.88 304.524 1360.92 302.609 1497.88 304.659" stroke="url(#paint1_linear)" stroke-miterlimit="10"/>
<path d="M-1 296.026C70.6878 296.026 142.396 296.338 214.074 296.185C278.132 296.049 342.044 293.11 406.081 292.604C525.37 291.662 644.638 292.757 763.916 291.644C869.788 290.655 976.752 288.034 1082.55 292.033C1144.21 294.388 1205.24 295.46 1266.96 296.432C1343.99 297.645 1420.92 294.353 1497.92 296.026" stroke="url(#paint2_linear)" stroke-miterlimit="10"/>
<path d="M-1 287.51C69.6573 287.51 140.502 288.181 211.138 287.457C277.518 286.773 343.512 281.986 409.839 280.755C529.357 278.534 647.938 284.877 767.331 283.746C872.39 282.769 975.961 274.83 1081.14 281.933C1142.61 286.084 1202.18 289.335 1264.11 290.283C1342.18 291.461 1419.86 285.731 1497.92 287.51" stroke="url(#paint3_linear)" stroke-miterlimit="10"/>
<path d="M-1 279.159C68.377 279.159 138.264 280.231 207.589 278.753C276.914 277.274 345.25 270.472 414.367 268.276C477.196 266.279 539.141 266.815 601.638 271.161C657.649 275.06 712.058 277.875 768.528 277.451C818.023 277.074 864.396 272.822 913.277 268.859C969.216 264.318 1026.81 266.438 1082.23 272.221C1143.23 278.594 1200.76 284.689 1263.05 285.384C1341.61 286.267 1419.3 277.634 1497.92 279.159" stroke="url(#paint4_linear)" stroke-miterlimit="10"/>
<path d="M-1 270.926C66.8781 270.926 135.787 272.369 203.55 270.06C275.956 267.598 347.134 258.682 419.384 255.337C481.418 252.428 543.866 254.422 604.927 261.262C659.44 267.28 712.141 272.657 767.861 272.41C819.46 272.18 866.145 264.789 916.233 258.812C973.088 252.027 1029.35 254.601 1085.34 262.828C1145.35 271.662 1200.75 281.179 1263.46 281.432C1342.17 281.756 1419.08 269.936 1497.92 270.932" stroke="url(#paint5_linear)" stroke-miterlimit="10"/>
<path d="M-1 262.822C65.275 262.787 133.174 264.589 199.22 261.438C275.04 257.852 349.112 246.786 424.651 242.163C488.043 238.288 546.625 241.892 607.769 251.627C660.116 259.966 710.819 268.317 765.728 268.335C820.022 268.335 868.32 257.233 919.845 249.13C978.543 239.901 1032.67 242.587 1090.02 253.735C1148.4 265.078 1202 278.47 1265.05 278.176C1343.64 277.775 1419.11 262.551 1497.92 262.822" stroke="url(#paint6_linear)" stroke-miterlimit="10"/>
<path d="M-1 254.848C63.5992 254.795 130.478 256.797 194.692 252.922C273.989 248.14 350.829 234.937 429.845 228.977C494.122 224.13 549.915 229.312 610.069 242.28C659.7 252.981 708.446 264.577 762.459 264.942C819.543 265.331 871.006 250.084 923.801 239.819C984.767 227.964 1036.82 230.484 1095.74 244.931C1151.84 258.688 1204.16 276.35 1267.49 275.36C1345.8 274.135 1419.28 255.413 1497.9 254.848" stroke="url(#paint7_linear)" stroke-miterlimit="10"/>
<path d="M-1 247.004C61.9441 246.933 127.782 249.065 190.258 244.548C272.948 238.57 352.568 223.294 434.873 216.003C500.45 210.19 553.079 216.845 611.964 233.229C658.534 246.185 705.313 261.15 758.576 261.939C818.45 262.816 874.045 243.011 928.058 230.838C956.35 224.495 986.173 218.553 1017.01 219.919C1047.2 221.262 1075.78 228.453 1102.18 236.409C1155.39 252.41 1207.23 274.436 1270.55 272.752C1348.52 270.673 1419.54 248.464 1497.93 247.022" stroke="url(#paint8_linear)" stroke-miterlimit="10"/>
<path d="M-0.948486 239.295C60.4655 239.206 125.231 241.391 186 236.35C271.844 229.248 353.951 211.998 439.306 203.447C506.383 196.722 555.972 204.725 613.264 224.483C656.702 239.466 701.523 257.775 754.308 259.018C816.763 260.484 877.136 236.02 932.18 222.175C961.013 214.919 992.813 207.269 1025.02 208.953C1055.21 210.532 1083.49 219.154 1108.73 228.093C1159.06 245.926 1210.36 272.398 1273.84 270.036C1351.47 267.139 1419.75 241.556 1497.94 239.295" stroke="url(#paint9_linear)" stroke-miterlimit="10"/>
<path d="M-0.9375 231.721C59.0088 231.615 122.817 233.8 182.035 228.388C270.679 220.279 354.993 201.209 442.992 191.516C476.499 187.829 508.257 185.697 541.077 192.163C567.818 197.434 591.343 206.686 614.035 216.038C654.631 232.758 697.485 254.2 750.145 255.879C814.89 257.946 880.114 229.048 936.052 213.789C965.385 205.785 999.142 196.516 1032.58 198.477C1062.9 200.243 1090.81 210.179 1114.96 219.99C1162.62 239.33 1213.31 269.942 1277.13 266.98C1354.48 263.382 1419.93 234.631 1497.98 231.692" stroke="url(#paint10_linear)" stroke-miterlimit="10"/>
<path d="M-0.927246 224.271C57.7595 224.159 120.704 226.333 178.558 220.673C269.45 211.78 355.368 191.074 445.584 180.467C479.205 176.516 510.87 174.066 543.523 181.404C570.015 187.393 592.592 197.67 614.181 207.941C652.393 226.097 693.457 250.231 746.377 252.263C780.196 253.564 814.203 243.582 843.411 235.131C875.815 225.755 906.969 215.072 939.362 205.685C969.133 197.063 1004.52 186.486 1039.08 188.695C1069.62 190.644 1097.09 201.592 1120.39 212.134C1165.86 232.746 1215.59 266.821 1280.02 263.37C1357.24 259.247 1419.95 227.634 1497.99 224.248" stroke="url(#paint11_linear)" stroke-miterlimit="10"/>
<path d="M-0.916748 216.957C56.7187 216.845 118.997 219.024 175.737 213.259C268.233 203.866 355.149 181.746 446.874 170.48C480.34 166.357 512.244 163.725 544.564 171.587C571.024 178.024 592.925 189.184 613.733 200.161C650.352 219.472 689.866 245.608 743.431 247.864C778.177 249.313 813.172 238.5 842.838 229.56C876.325 219.46 908.416 207.964 941.902 197.853C972.089 188.73 1008.52 177.323 1044.01 179.649C1074.87 181.675 1101.87 193.306 1124.53 204.454C1168.59 226.121 1216.81 262.64 1282.27 258.959C1359.49 254.619 1419.81 220.467 1498 216.981" stroke="url(#paint12_linear)" stroke-miterlimit="10"/>
<path d="M-0.895996 209.772C55.9275 209.678 117.82 211.898 173.728 206.18C267.004 196.639 354.16 173.359 446.593 161.787C479.601 157.665 512.098 154.979 543.96 162.894C570.639 169.52 592.238 181.28 612.661 192.723C648.697 212.947 687.045 240.131 741.734 242.322C777.25 243.747 812.34 232.823 842.422 223.477C876.616 212.876 909.301 200.791 943.484 190.179C974.056 180.686 1010.64 169.096 1046.86 171.404C1078.09 173.395 1104.63 185.238 1127.01 196.863C1170.73 219.566 1216.64 257.01 1283.63 253.364C1361.05 249.153 1419.55 212.9 1498.06 209.784" stroke="url(#paint13_linear)" stroke-miterlimit="10"/>
<path d="M-0.885498 202.705C55.7299 202.505 117.425 205.002 173.093 199.172C265.734 189.449 351.776 165.474 443.481 153.631C476.395 149.385 508.871 146.84 540.713 154.661C567.777 161.322 589.802 173.224 610.527 184.808C647.23 205.326 685.983 232.858 741.391 235.426C777.157 237.081 812.038 226.292 842.256 216.798C876.502 206.033 909.124 193.712 943.36 182.941C974.077 173.271 1010.48 161.84 1046.96 164.314C1078.4 166.445 1104.78 178.312 1127.21 190.067C1171.1 213.088 1216.14 250.037 1283.67 246.603C1361.3 242.669 1419.19 205.426 1498.03 202.705" stroke="url(#paint14_linear)" stroke-miterlimit="10"/>
<path d="M-0.875244 195.797C55.9795 195.432 117.487 198.583 173.353 192.346C264.35 182.187 348.456 157.818 438.485 145.557C471.794 141.016 503.417 138.654 535.716 146.528C563.269 153.236 586.076 165.014 607.56 176.498C645.481 196.793 685.868 224.601 741.276 228.106C776.823 230.355 811.829 219.537 841.787 210.049C875.617 199.337 907.75 187.005 941.569 176.281C972.224 166.557 1008.62 155.215 1045.06 158.154C1076.4 160.68 1103.17 172.718 1125.9 184.343C1170.03 206.899 1216.37 243.152 1283.08 239.819C1360.9 235.926 1418.98 198.471 1498.01 195.797" stroke="url(#paint15_linear)" stroke-miterlimit="10"/>
<path d="M-0.854248 189.007C56.3232 188.571 117.664 192.599 173.874 185.997C263.018 175.526 344.927 150.839 433.062 138.295C466.652 133.501 497.536 131.363 530.2 139.137C558.179 145.798 581.902 157.27 604.188 168.665C643.378 188.689 685.629 216.397 740.985 220.75C776.21 223.523 810.945 212.929 840.632 203.482C873.889 192.882 905.345 180.626 938.582 170.032C969.143 160.291 1005.2 149.272 1041.47 152.629C1072.84 155.538 1100.09 167.629 1123.33 179.131C1168.04 201.215 1215.9 236.562 1282.1 233.276C1360.27 229.401 1418.67 191.704 1498.04 189.042" stroke="url(#paint16_linear)" stroke-miterlimit="10"/>
<path d="M-0.833496 182.346C56.7395 181.928 118.049 187.022 174.654 180.085C261.758 169.419 341.284 144.479 427.347 131.717C461.073 126.717 491.374 124.838 524.308 132.388C552.788 138.913 577.395 150.056 600.545 161.245C641.369 180.909 685.098 208.218 740.61 213.371C775.419 216.598 809.54 206.463 838.935 197.081C871.464 186.692 902.119 174.543 934.626 164.143C965.073 154.396 1000.43 143.925 1036.48 147.653C1068 150.921 1095.81 162.965 1119.75 174.307C1165.36 195.903 1214.92 230.167 1280.77 226.898C1359.41 222.994 1418.27 185.043 1498.12 182.364" stroke="url(#paint17_linear)" stroke-miterlimit="10"/>
<path d="M-0.823242 175.815C57.2182 175.485 118.507 181.804 175.622 174.566C260.54 163.807 337.537 138.642 421.382 125.81C455.087 120.639 484.972 119.031 518.073 126.251C547.062 132.576 572.534 143.33 596.631 154.178C639.308 173.394 684.369 200.049 740.09 205.944C807.333 213.064 875.284 176.009 929.776 158.542C960.108 148.813 994.51 139.066 1030.24 143.148C1062.01 146.781 1090.41 158.707 1115.17 169.879C1161.93 190.968 1213.35 224.006 1279.03 220.72C1358.26 216.762 1417.67 178.536 1498.09 175.815" stroke="url(#paint18_linear)" stroke-miterlimit="10"/>
<path d="M-0.802246 169.419C57.7492 169.237 119.049 176.91 176.757 169.419C259.395 158.654 333.737 133.371 415.251 120.498C448.842 115.197 478.435 113.878 511.63 120.68C541.15 126.74 567.506 137.017 592.55 147.523C637.081 166.192 683.485 191.957 739.486 198.582C805.709 206.403 870.735 170.42 924.217 153.236C953.79 143.748 988.265 134.184 1023.02 139.072C1055.29 143.607 1083.72 154.602 1109.89 165.791C1157.99 186.345 1211.38 218.046 1277.07 214.725C1356.97 210.691 1417.02 172.175 1498.12 169.378" stroke="url(#paint19_linear)" stroke-miterlimit="10"/>
<path d="M-0.781494 163.147C58.3217 163.147 119.684 172.293 178.037 164.526C258.323 153.837 329.938 128.448 409.048 115.645C546.448 93.3898 618.126 175.55 738.82 191.274C803.877 199.761 865.614 165.073 918.128 148.236C947.565 138.813 980.708 130.233 1015.03 135.398C1047.7 140.315 1076.79 151.069 1104.01 162.046C1153.61 182.069 1209.08 212.328 1274.9 208.954C1355.54 204.831 1416.3 166.015 1498.15 163.147" stroke="url(#paint20_linear)" stroke-miterlimit="10"/>
<path d="M-0.760498 157.011C58.9152 157.258 120.381 167.906 179.432 159.908C257.324 149.361 326.201 123.914 402.844 111.222C537.403 88.9493 619.354 167.17 738.102 184.019C802.035 193.1 860.066 159.95 911.622 143.436C940.934 134.049 972.63 126.599 1006.46 131.999C1039.57 137.3 1069.4 147.782 1097.72 158.53C1148.91 177.965 1206.49 206.769 1272.59 203.318C1354.02 199.072 1415.54 159.973 1498.18 157.011" stroke="url(#paint21_linear)" stroke-miterlimit="10"/>
<path d="M-0.73999 151.004C59.529 151.504 121.12 163.707 180.91 155.509C256.418 145.156 322.474 119.679 396.744 107.159C528.451 84.9506 620.54 158.895 737.362 176.869C800.15 186.527 854.236 155.008 904.887 138.819C934.095 129.485 964.219 123.23 997.529 128.807C1031.1 134.455 1061.7 144.708 1091.14 155.191C1143.97 174.036 1203.68 201.339 1270.11 197.811C1352.35 193.435 1414.68 154.043 1498.14 150.98" stroke="url(#paint22_linear)" stroke-miterlimit="10"/>
<path d="M-0.718994 145.126C60.1329 145.886 121.901 159.649 182.482 151.281C255.658 141.163 318.988 115.674 390.863 103.366C519.77 81.2875 621.706 150.792 736.613 169.843C798.266 180.067 848.293 150.226 898.08 134.349C927.163 125.074 955.819 120.05 988.577 125.827C1022.61 131.834 1054.02 141.828 1084.56 152.052C1139.05 170.309 1200.86 196.103 1267.71 192.487C1350.8 187.988 1413.91 148.318 1498.2 145.126" stroke="url(#paint23_linear)" stroke-miterlimit="10"/>
<path d="M-0.698242 139.385C60.7157 140.398 122.692 155.686 183.97 147.176C254.898 137.323 315.553 111.841 385.138 99.7738C511.494 77.866 622.883 142.848 735.926 162.965C796.455 173.742 842.412 145.58 891.387 129.985C920.345 120.769 947.596 116.976 979.729 122.918C1014.24 129.291 1046.43 139.055 1078.06 148.996C1134.16 166.628 1198.03 190.968 1265.34 187.276C1349.26 182.653 1413.15 142.659 1498.26 139.396" stroke="url(#paint24_linear)" stroke-miterlimit="10"/>
<path d="M-0.677246 133.766C61.3509 135.021 123.473 151.775 185.501 143.148C254.295 133.578 312.388 108.113 379.808 96.305C503.74 74.5974 624.038 135.068 735.187 156.251C794.707 167.594 836.551 140.992 884.85 125.71C913.714 116.582 939.54 113.931 971.131 120.044C1006.09 126.782 1039.06 136.352 1071.73 146.004C1129.36 163.03 1195.2 185.939 1262.97 182.152C1347.69 177.411 1412.32 137.129 1498.22 133.766" stroke="url(#paint25_linear)" stroke-miterlimit="10"/>
<path d="M-0.656494 128.283C61.9545 129.744 124.253 147.877 186.979 139.161C253.806 129.879 309.495 104.414 374.895 92.8834C438.339 81.6939 505.832 94.3262 565.091 107.824C622.237 120.845 676.563 137.924 734.563 149.732C793.333 161.698 830.816 136.351 878.75 121.464C942.402 101.705 1007.59 126.764 1065.85 143.012C1124.88 159.455 1192.58 180.997 1260.8 177.128C1346.27 172.287 1411.6 131.723 1498.26 128.277" stroke="url(#paint26_linear)" stroke-miterlimit="10"/>
<path d="M-0.635742 122.924C62.5582 124.555 124.867 143.943 188.394 135.162C253.441 126.163 306.913 100.716 370.554 89.438C433.415 78.2839 502.688 90.398 562.229 102.759C620.53 114.868 676.021 130.857 734.011 143.436C792 156.015 825.871 131.911 873.191 117.235C935.397 97.9479 1003.31 124.891 1060.56 139.997C1120.83 155.898 1190.23 176.133 1258.83 172.211C1344.97 167.282 1410.95 126.446 1498.24 122.924" stroke="url(#paint27_linear)" stroke-miterlimit="10"/>
<path d="M-0.614746 117.7C63.1725 119.467 125.43 139.938 189.696 131.104C253.192 122.382 304.696 96.9469 366.651 85.887C429.033 74.7859 499.888 86.4052 559.699 97.7419C619.031 108.996 675.636 124.025 733.532 137.376C760.846 143.672 780.863 143.931 807.271 135.81C828.734 129.208 846.888 119.62 868.32 112.971C896.914 104.09 919.689 104.338 949.636 110.94C985.621 118.884 1020.68 128.018 1055.99 136.893C1117.27 152.252 1188.18 171.31 1257.09 167.352C1343.82 162.37 1410.36 121.263 1498.27 117.7" stroke="url(#paint28_linear)" stroke-miterlimit="10"/>
<path d="M-0.593994 112.6C63.7866 114.367 125.856 135.816 190.872 126.952C253.108 118.466 302.854 92.9364 363.56 82.1591C425.619 71.1404 497.775 82.2769 557.826 92.7597C617.876 103.242 675.532 117.494 733.241 131.628C759.909 138.16 779.405 139.084 805.584 131.004C826.34 124.597 843.661 115.139 864.365 108.684C892.802 99.815 915.224 100.757 944.65 107.577C980.812 115.957 1016.41 125.074 1052.39 133.701C1114.43 148.578 1186.74 166.575 1255.75 162.606C1342.96 157.594 1409.94 116.24 1498.28 112.653" stroke="url(#paint29_linear)" stroke-miterlimit="10"/>
<path d="M-0.573242 107.642C64.4111 109.361 126.127 131.552 191.871 122.665C253.181 114.367 301.375 88.643 361.238 78.1837C423.214 67.3417 496.151 77.9717 556.576 87.7066C617.491 97.5121 675.647 111.169 733.116 126.081C759.243 132.853 778.52 134.278 804.502 126.198C824.695 119.926 841.319 110.527 861.45 104.196C889.753 95.2978 912.153 96.7406 941.132 103.819C977.345 112.653 1013.36 121.793 1049.89 130.238C1112.34 144.685 1185.85 161.752 1254.81 157.812C1342.36 152.806 1409.67 111.216 1498.39 107.642" stroke="url(#paint30_linear)" stroke-miterlimit="10"/>
<path d="M-0.552246 102.807C65.0254 104.367 126.21 127.094 192.683 118.183C253.358 110.05 300.512 84.2144 359.656 73.8789C421.435 63.0899 495.329 73.4902 555.91 82.6184C617.449 91.8939 675.866 105.18 733.064 120.898C758.764 127.965 778.146 129.673 803.992 121.54C823.769 115.315 839.872 105.91 859.618 99.6264C887.817 90.6513 910.529 92.3474 939.165 99.7501C975.305 109.09 1011.59 118.295 1048.52 126.599C1111.17 140.68 1185.53 156.981 1254.21 153.1C1341.97 148.147 1409.44 106.334 1498.37 102.807" stroke="url(#paint31_linear)" stroke-miterlimit="10"/>
<path d="M-0.520996 98.0952C65.3897 99.4969 126.148 122.471 193.027 113.478C253.493 105.351 300.366 79.5383 359.323 69.2617C421.039 58.508 495.267 69.1203 555.869 78.0543C617.626 87.159 675.855 100.345 733.126 116.134C758.733 123.201 778.385 124.673 804.054 116.593C823.696 110.41 839.695 101.087 859.337 94.8856C887.442 86.0165 910.571 87.6654 938.936 95.2802C974.92 104.938 1011.25 114.214 1048.34 122.435C1110.68 136.257 1186.01 152.376 1254.16 148.348C1341.79 143.177 1409.7 102.07 1498.4 98.1129" stroke="url(#paint32_linear)" stroke-miterlimit="10"/>
<path d="M-0.500488 93.4606C65.556 94.7915 126.137 117.918 193.172 108.82C253.545 100.622 300.657 75.0274 359.656 64.8155C421.372 54.1325 495.433 65.2101 555.941 74.2029C617.501 83.3547 675.48 96.517 733.147 111.558C787.732 125.792 814.786 103.902 859.743 90.2509C887.848 81.7175 911.123 83.2722 939.227 90.9164C975.056 100.663 1011.32 109.915 1048.4 118.042C1110.37 131.623 1186.68 147.818 1254.34 143.448C1341.6 137.806 1410.35 98.3721 1498.45 93.5489" stroke="url(#paint33_linear)" stroke-miterlimit="10"/>
<path d="M-0.479492 88.8964C65.7747 90.1802 126.21 113.478 193.453 104.303C253.826 96.0577 301.126 70.7341 360.156 60.6164C421.872 50.0158 495.714 61.5175 556.129 70.5397C617.449 79.6974 675.21 92.8009 733.209 107.082C787.337 120.415 815.358 98.9139 860.347 85.8811C888.451 77.7187 911.934 79.2263 939.789 86.8823C975.451 96.6819 1011.61 105.863 1048.68 113.849C1110.41 127.153 1187.48 143.177 1254.57 138.513C1341.4 132.482 1410.98 94.762 1498.44 89.1732" stroke="url(#paint34_linear)" stroke-miterlimit="10"/>
<path d="M-0.45874 84.4145C66.0245 85.663 126.366 109.149 193.859 99.9325C254.159 91.6994 301.74 66.6644 360.812 56.6528C422.527 46.2289 496.131 58.0191 556.431 67.0472C617.46 76.1755 675.095 89.1788 733.303 102.671C787.045 115.115 816.025 94.0904 861.127 81.6642C889.305 73.9081 912.965 75.4158 940.612 83.0658C976.076 92.8831 1012.16 101.958 1049.17 109.756C1110.74 122.741 1188.28 138.371 1254.92 133.466C1341.31 127.111 1411.7 91.1635 1498.49 84.8856" stroke="url(#paint35_linear)" stroke-miterlimit="10"/>
<path d="M-0.437988 80.0095C66.3263 81.2463 126.554 104.915 194.39 95.6925C254.638 87.5065 302.51 62.7542 361.634 52.9428C423.329 42.7015 496.557 54.7566 556.837 63.7553C617.532 72.8247 674.991 85.6926 733.438 98.3721C786.775 109.944 816.774 89.4735 862.085 77.7186C890.356 70.3807 914.204 71.9413 941.673 79.5678C976.86 89.435 1012.97 98.2149 1049.83 105.869C1111.35 118.495 1189.11 133.548 1255.36 128.419C1341.2 121.805 1412.45 87.6714 1498.48 80.7987" stroke="url(#paint36_linear)" stroke-miterlimit="10"/>
<path d="M-0.406494 75.6868C66.6597 76.9236 126.866 100.798 195.036 91.5877C255.232 83.4665 303.426 59.0439 362.623 49.4327C424.297 39.4211 497.213 51.6647 557.378 60.6222C617.751 69.5974 675.054 82.2886 733.636 94.1436C786.577 104.862 817.659 84.9977 863.241 73.9554C891.647 67.0709 915.672 68.7199 942.985 76.3111C977.96 86.1129 1013.94 94.7283 1050.72 102.112C1112.27 114.344 1190.02 128.578 1255.92 123.313C1341.2 116.499 1413.26 84.2321 1498.54 76.8234" stroke="url(#paint37_linear)" stroke-miterlimit="10"/>
<path d="M-0.385986 71.4582C67.0237 72.7008 127.22 96.7818 195.774 87.6418C255.929 79.6206 304.467 55.5514 363.684 46.1699C425.327 36.4056 497.858 48.7965 557.971 57.6774C617.897 66.5113 675.178 79.0023 733.823 90.0151C786.39 99.8913 818.616 80.7043 864.51 70.4099C893.073 64.0025 917.285 65.7751 944.484 73.3545C979.219 83.0626 1015.03 91.4843 1051.7 98.5662C1113.35 110.345 1190.86 123.631 1256.48 118.242C1341.17 111.293 1414.01 80.9281 1498.52 73.066" stroke="url(#paint38_linear)" stroke-miterlimit="10"/>
<path d="M-0.36499 67.3125C67.4194 68.5846 127.668 92.8952 196.618 83.8023C256.731 75.9225 305.622 52.2362 364.902 43.1079C426.504 33.6263 498.639 46.1055 558.617 54.8863C618.126 63.6023 675.345 75.8106 734.011 85.9754C786.213 95.0153 819.647 76.5527 865.884 67.0475C894.624 61.1583 919.023 63.0664 946.139 70.581C980.645 80.174 1016.31 88.3707 1052.86 95.1095C1114.72 106.434 1191.78 118.596 1257.16 113.113C1341.24 106.046 1414.83 77.654 1498.55 69.3855" stroke="url(#paint39_linear)" stroke-miterlimit="10"/>
<path d="M-0.344482 63.2606C67.8459 64.568 128.084 89.1142 197.544 80.1449C257.615 72.383 306.892 49.097 366.234 40.2514C427.784 31.0819 499.472 43.6024 559.366 52.2713C618.459 60.8283 675.626 72.7304 734.24 82.0354C786.088 90.2803 820.802 72.5714 867.404 63.8848C896.341 58.4962 920.928 60.6104 947.981 68.0073C982.246 77.4548 1017.74 85.4011 1054.15 91.7761C1116.24 102.583 1192.69 113.49 1257.88 107.942C1341.33 100.875 1415.62 74.4324 1498.55 65.8224" stroke="url(#paint40_linear)" stroke-miterlimit="10"/>
<path d="M-0.323242 59.309C68.2939 60.6635 128.594 85.4453 198.492 76.5997C258.594 69.0203 308.256 46.1348 367.671 37.5955C429.158 28.7617 500.346 41.2762 560.241 49.8156C618.896 58.1901 676.022 69.7506 734.573 78.1898C786.067 85.6161 822.135 68.7317 869.122 60.905C898.267 56.0523 923.031 58.3726 950.063 65.7341C984.078 75.0158 1019.4 82.6844 1055.65 88.6608C1117.98 98.9139 1193.66 108.478 1258.7 102.866C1341.5 95.7573 1416.46 71.376 1498.59 62.4715" stroke="url(#paint41_linear)" stroke-miterlimit="10"/>
<path d="M-0.302734 55.4752C68.7412 56.8709 129.114 81.8883 199.626 73.1899C259.635 65.7813 309.713 43.3434 369.191 35.128C430.605 26.6416 501.304 39.1267 561.063 47.4953C619.291 55.6695 676.375 66.8472 734.802 74.4267C785.973 81.0697 823.467 65.0039 870.818 58.0782C900.172 53.7732 925.133 56.3115 952.176 63.62C985.934 72.716 1021.06 80.0853 1057.14 85.6397C1119.88 95.298 1194.62 103.366 1259.56 97.7656C1341.71 90.6985 1417.26 68.3667 1498.61 59.2089" stroke="url(#paint42_linear)" stroke-miterlimit="10"/>
<path d="M-0.281738 51.7058C69.2618 53.184 129.749 78.4428 200.761 69.9094C260.759 62.7069 311.274 40.7166 370.794 32.8427C432.156 24.7332 502.324 37.1477 562 45.3749C619.791 53.343 676.833 64.0967 735.104 70.8163C785.973 76.7055 824.945 61.5055 872.65 55.5044C902.223 51.7647 927.371 54.5739 954.456 61.7823C987.957 70.6743 1022.89 77.7247 1058.78 82.8362C1121.9 91.8585 1195.59 98.3778 1260.45 92.7713C1341.96 85.7337 1418.05 65.5337 1498.64 56.1639" stroke="url(#paint43_linear)" stroke-miterlimit="10"/>
<path d="M-0.260986 48.0605C69.7822 49.6152 130.374 75.1154 201.978 66.7704C261.925 59.78 312.846 38.2549 372.47 30.7403C433.748 23.0137 503.375 35.3398 562.957 43.3844C620.332 51.1287 677.302 61.4289 735.385 67.2887C785.994 72.3946 826.475 58.1133 874.545 53.0074C904.325 49.8449 929.651 52.9308 956.829 60.0744C990.07 68.7454 1024.8 75.4552 1060.47 80.0977C1123.97 88.4368 1196.54 93.3366 1261.37 87.7536C1342.24 80.7985 1418.81 62.7304 1498.66 53.1723" stroke="url(#paint44_linear)" stroke-miterlimit="10"/>
<path d="M-0.23999 44.5272C70.2924 46.1644 131.04 71.906 203.196 63.7613C263.153 56.9946 314.501 35.9466 374.198 28.803C435.393 21.4828 504.468 33.6852 564.009 41.5413C620.978 49.0618 677.864 58.8673 735.76 63.8732C786.15 68.2253 828.172 54.8745 876.585 50.7108C906.584 48.1255 932.087 51.5059 959.369 58.5434C992.351 66.9901 1026.88 73.3535 1062.33 77.5184C1126.25 85.1331 1197.58 88.3604 1262.39 82.8187C1342.54 75.9519 1419.57 60.0628 1498.68 50.3457" stroke="url(#paint45_linear)" stroke-miterlimit="10"/>
<path d="M-0.219238 41.1055C70.8232 42.8311 131.727 68.7847 204.477 60.8873C264.433 54.3562 316.208 33.7853 375.978 27.0304C437.09 20.14 505.603 32.1893 565.07 39.8452C621.655 47.1302 678.436 56.4115 736.082 60.5693C786.296 64.1911 829.848 51.7885 878.573 48.5671C908.76 46.5707 934.46 50.2573 961.846 57.2066C994.572 65.4129 1028.89 71.4121 1064.1 75.0802C1128.42 81.9294 1198.5 83.4547 1263.31 77.9542C1342.87 71.2052 1420.2 57.5128 1498.63 47.6543" stroke="url(#paint46_linear)" stroke-miterlimit="10"/>
<path d="M-0.198242 37.8073C71.3647 39.6212 132.446 65.84 205.778 58.1486C265.724 51.8531 317.957 31.7767 377.8 25.44C438.808 18.9618 506.748 30.8757 566.205 38.3197C622.415 45.3867 679.072 54.0969 736.478 57.4125C786.598 60.31 831.638 48.8731 880.738 46.5999C911.144 45.1924 936.948 49.2029 964.595 56.058C997.068 64.0199 1031.18 69.6468 1066.13 72.8069C1212.89 86.5229 1356.72 63.3841 1498.77 45.1276" stroke="url(#paint47_linear)" stroke-miterlimit="10"/>
<path d="M-0.177734 34.6154C71.916 36.5294 133.174 62.9777 207.11 55.5279C267.056 49.4856 319.737 29.9099 379.652 23.9442C440.556 17.8783 507.924 29.6449 567.256 36.8709C623.143 43.6965 679.633 51.8412 736.78 54.297C786.889 56.4701 833.345 46.0522 882.81 44.6977C913.392 43.8732 939.414 48.2312 967.217 54.9861C999.319 62.8363 1033.41 67.8421 1068.02 70.6101C1211.05 82.0527 1360.24 60.8105 1498.74 42.6777" stroke="url(#paint48_linear)" stroke-miterlimit="10"/>
<path d="M-0.156982 31.5531C72.4676 33.5672 133.913 60.2452 208.453 53.0428C268.409 47.2301 321.527 28.1786 381.515 22.6134C442.315 16.9774 509.1 28.585 568.37 35.5696C623.955 42.136 680.247 49.7036 737.133 51.3585C787.337 52.819 835.104 43.3845 884.943 42.9899C915.702 42.7485 941.892 47.448 969.913 54.1205C1001.81 61.7116 1035.67 66.2875 1069.99 68.5608C1135.37 72.8893 1201.66 69.2027 1266.5 63.9083C1344.3 57.5539 1422.21 50.5811 1498.76 40.3516" stroke="url(#paint49_linear)" stroke-miterlimit="10"/>
<path d="M-0.135986 28.6143C72.395 30.6932 133.757 57.4184 208.224 50.8343C267.941 45.534 321.163 27.2245 380.683 21.6709C440.848 16.0585 506.29 27.195 565.039 33.9205C621.832 40.3986 679.363 47.6364 737.498 48.5434C789.107 49.3502 839.393 40.4339 890.887 41.4763C921.969 42.1065 947.877 47.8543 976.367 54.2382C1005.96 60.8695 1037.21 64.668 1068.81 66.4642C1136.07 70.2863 1202.79 64.6503 1269.25 59.3324C1345.96 53.1958 1423.37 48.4727 1498.81 38.2137" stroke="url(#paint50_linear)" stroke-miterlimit="10"/>
<path d="M-0.125488 25.8052C72.9051 27.9842 134.517 54.9332 209.536 48.6023C269.263 43.5611 322.912 25.7345 382.525 20.5873C442.565 15.4284 507.487 26.4059 566.153 32.9134C622.675 39.1913 679.987 45.8697 737.821 45.8697C789.731 45.8697 841.131 38.1372 893.052 40.11C924.176 41.2879 950.303 47.3656 979.011 53.614C1008.41 60.0097 1039.45 63.4078 1070.78 64.7505C1138.26 67.6421 1203.82 60.204 1270.27 55.0333C1346.49 49.1029 1423.88 46.5764 1498.79 36.1878" stroke="url(#paint51_linear)" stroke-miterlimit="10"/>
<path d="M-0.104736 23.1314C73.4775 25.4105 135.214 52.5775 210.868 46.4939C270.616 41.6883 324.682 24.3623 384.378 19.6156C444.293 14.8394 508.705 25.7403 567.34 32.0359C623.549 38.0841 680.643 44.1618 738.175 43.302C790.46 42.5187 842.87 35.9464 895.228 38.838C926.393 40.5635 952.728 46.9651 981.624 53.0781C1010.77 59.2441 1041.66 62.2417 1072.7 63.131C1140.36 65.0803 1204.84 55.8755 1271.27 50.8461C1347.01 45.11 1424.28 44.792 1498.76 34.2738" stroke="url(#paint52_linear)" stroke-miterlimit="10"/>
<path d="M-0.0837402 20.5934C74.0086 22.9491 136.005 50.3456 212.19 44.5153C271.949 39.9394 326.43 23.0845 386.221 18.7618C446.011 14.4392 509.902 25.1929 568.381 31.2705C624.455 37.1008 681.278 42.6072 738.497 40.8817C791.241 39.2916 844.546 33.8971 897.341 37.6956C928.569 39.9394 955.091 46.6884 984.257 52.6601C1013.42 58.6317 1043.92 61.1994 1074.67 61.647C1142.33 62.6423 1205.95 51.7119 1272.31 46.8239C1347.61 41.2763 1424.82 43.1608 1498.8 32.4896" stroke="url(#paint53_linear)" stroke-miterlimit="10"/>
<path d="M-0.0737305 18.1905C74.5286 20.664 136.744 48.2256 213.47 42.6662C273.26 38.314 328.137 21.9714 388.011 18.0139C447.634 14.074 511.13 24.757 569.504 30.6286C625.412 36.2469 681.923 41.1762 738.861 38.6026C792.125 36.1939 846.221 31.9713 899.485 36.6591C930.619 39.4035 957.453 46.5059 986.828 52.3421C1015.66 58.0665 1046.16 60.269 1076.58 60.2867C1144.24 60.3338 1207.04 47.7309 1273.31 42.9724C1348.25 37.5896 1425.28 41.6709 1498.8 30.8288" stroke="url(#paint54_linear)" stroke-miterlimit="10"/>
<path d="M-0.0632324 15.9351C75.0388 18.491 137.442 46.282 214.719 40.9346C274.541 36.8122 329.813 20.9114 389.759 17.3779C449.321 13.8444 512.181 24.4449 570.566 30.1103C626.359 35.5048 682.59 39.8805 739.194 36.4706C793.031 33.2316 847.824 30.181 901.577 35.7404C932.701 38.95 959.764 46.4116 989.358 52.1123C1018.06 57.6364 1048.29 59.4444 1078.43 59.0439C1145.98 58.1546 1208.14 43.9381 1274.31 39.2916C1348.83 34.062 1425.66 40.3398 1498.83 29.28" stroke="url(#paint55_linear)" stroke-miterlimit="10"/>
<path d="M-0.0422363 13.8208C75.5282 16.465 138.15 44.4446 215.937 39.3328C275.79 35.3929 331.479 20.0044 391.456 16.8066C450.892 13.6382 513.243 24.2211 571.597 29.6745C627.286 34.8629 683.235 38.6908 739.517 34.4624C793.957 30.3753 849.428 28.479 903.555 34.8923C934.647 38.573 961.94 46.388 991.794 51.9709C1020.31 57.2712 1050.4 58.7317 1080.27 57.9249C1147.65 56.1169 1209.27 40.3575 1275.33 35.811C1349.49 30.7051 1426.09 39.162 1498.92 27.8842" stroke="url(#paint56_linear)" stroke-miterlimit="10"/>
<path d="M-0.0319824 11.8538C75.9548 14.5805 138.805 42.7603 217.092 37.8546C276.976 34.0973 332.978 19.174 393.09 16.3296C452.423 13.5263 514.315 24.0915 572.575 29.3565C628.191 34.3917 683.86 37.6426 739.809 32.6132C794.884 27.6663 850.854 26.9007 905.449 34.1444C936.479 38.2668 964.032 46.4352 994.083 51.8886C1022.46 57.0357 1052.37 58.1017 1081.94 56.912C1149.08 54.2089 1210.27 36.9948 1276.2 32.5072C1350.11 27.4955 1426.4 38.1196 1498.9 26.5709" stroke="url(#paint57_linear)" stroke-miterlimit="10"/>
<path d="M-0.0217285 10.0459C76.4439 12.8374 139.461 41.2057 218.185 36.4943C278.121 32.9137 334.466 18.4321 394.641 15.9351C453.88 13.4793 515.294 24.0445 573.502 29.1446C629.066 34.0149 684.463 36.724 740.1 30.9113C795.737 25.0987 852.259 25.4403 907.281 33.4849C938.238 38.0137 966.062 46.4411 996.28 51.871C1024.38 56.9298 1054.34 57.5658 1083.54 55.9934C1150.41 52.4599 1211.26 33.8559 1277.06 29.4273C1350.64 24.4744 1426.71 37.2481 1498.9 25.3873" stroke="url(#paint58_linear)" stroke-miterlimit="10"/>
<path d="M0.0407715 8.36133C76.9227 11.2117 140.075 39.7685 219.268 35.2397C279.183 31.8298 335.861 17.7841 396.109 15.6109C455.212 13.479 516.23 24.0796 574.376 29.0324C629.909 33.7438 685.046 35.9405 740.36 29.3622C796.715 22.6662 853.57 24.062 908.988 32.8958C939.883 37.8074 967.946 46.5528 998.341 51.9061C1026.33 56.8354 1056.13 57.1181 1085.03 55.2276C1116.56 53.1605 1147.3 48.4256 1177.57 43.1724C1210.23 37.5129 1243.84 28.8793 1277.87 26.5943C1351.2 21.665 1427.01 36.5589 1498.91 24.3446" stroke="url(#paint59_linear)" stroke-miterlimit="10"/>
<path d="M0.0407715 6.88916C77.2975 9.78665 140.564 38.526 220.215 34.1503C280.182 30.8524 337.162 17.1953 397.483 15.3461C456.492 13.5145 517.074 24.1799 575.167 29.009C630.7 33.6144 685.619 35.2928 740.61 27.9725C797.579 20.3872 854.809 22.7959 910.633 32.3953C941.392 37.6956 969.695 46.7061 1000.25 51.9828C1028.12 56.7943 1057.79 56.759 1086.4 54.5447C1117.87 52.1183 1148.43 46.9711 1178.52 41.3823C1210.95 35.3635 1244.61 26.2823 1278.63 23.9796C1351.73 19.0386 1427.3 36.0231 1498.92 23.3907" stroke="url(#paint60_linear)" stroke-miterlimit="10"/>
<path d="M0.0407715 5.55249C77.6514 8.49709 141.085 37.4072 221.079 33.1611C281.088 29.9691 338.338 16.7243 398.711 15.1401C457.637 13.5913 517.813 24.3803 575.864 29.0858C631.408 33.5792 686.129 34.7865 740.797 26.7301C798.423 18.2673 855.912 21.6241 912.132 31.9597C942.777 37.5898 971.287 46.877 1001.99 52.0949C1029.76 56.8062 1059.24 56.4764 1087.65 53.9735C1119.05 51.2056 1149.45 45.6698 1179.39 39.7747C1211.59 33.432 1245.3 23.9504 1279.31 21.6124C1352.18 16.6065 1427.57 35.6581 1498.95 22.5723" stroke="url(#paint61_linear)" stroke-miterlimit="10"/>
<path d="M0.0407715 4.38013C77.9741 7.32474 141.512 36.4352 221.849 32.2892C281.931 29.1855 339.473 16.3058 399.908 14.9807C458.772 13.6851 518.573 24.6332 576.562 29.2444C632.126 33.6555 686.691 34.4152 741.026 25.6697C799.245 16.2999 856.88 20.5402 913.496 31.5589C944.036 37.5129 972.734 47.0417 1003.57 52.2124C1031.23 56.8472 1060.62 56.2583 1088.75 53.4904C1120.11 50.4044 1150.35 44.5152 1180.15 38.3374C1212.18 31.6885 1245.9 21.8829 1279.96 19.4919C1352.68 14.38 1427.88 35.4517 1498.95 21.8476" stroke="url(#paint62_linear)" stroke-miterlimit="10"/>
<path d="M0.0407715 3.37915C78.2759 6.32375 141.876 35.6166 222.526 31.5354C282.618 28.4966 340.42 15.9585 400.907 14.8395C459.709 13.7736 519.114 24.916 577.103 29.4624C632.698 33.8204 687.159 34.1738 741.183 24.7511C800.005 14.4862 857.671 19.5273 914.703 31.2292C945.108 37.4717 973.973 47.2184 1004.92 52.3537C1032.5 56.9355 1061.74 56.1228 1089.68 53.1193C1120.99 49.7448 1151.09 43.5376 1180.77 37.1007C1212.65 30.1809 1246.35 20.1221 1280.5 17.6663C1353.06 12.3955 1428.18 35.4517 1498.96 21.247" stroke="url(#paint63_linear)" stroke-miterlimit="10"/>
<path d="M0.0407715 2.54297C77.8908 5.48757 141.283 34.7804 221.464 30.9819C284.825 27.9843 346.072 14.445 410.005 14.7218C464.664 14.9574 519.509 25.1163 573.502 29.486C630.866 34.1267 685.775 33.9972 741.328 24.0621C802.93 13.0729 860.648 18.8502 920.022 31.9183C946.638 37.7721 971.995 45.7579 998.809 51.2407C1027.18 57.0416 1058.34 56.4762 1087.54 53.2548C1120.67 49.6035 1152.39 42.6543 1183.63 35.5873C1215.13 28.4378 1248.62 18.3731 1282.58 16.0175C1354.41 11.0646 1429.1 35.5166 1498.95 20.77" stroke="url(#paint64_linear)" stroke-miterlimit="10"/>
<path d="M0.0407715 1.8833C78.1094 4.78668 141.501 34.2739 221.901 30.4695C285.283 27.466 346.811 14.2447 410.723 14.6864C465.34 15.0692 519.905 25.5108 573.866 29.8865C631.272 34.539 686.17 34.0796 741.453 23.4967C803.679 11.5769 861.096 18.0315 920.959 31.7416C947.45 37.8075 972.88 45.8639 999.767 51.3527C1028.08 57.1594 1059.1 56.4763 1088.13 53.0723C1121.24 49.1913 1152.83 41.9417 1183.99 34.6862C1215.44 27.36 1248.92 17.1835 1282.97 14.71C1354.66 9.53927 1429.44 35.8228 1498.96 20.3636" stroke="url(#paint65_linear)" stroke-miterlimit="10"/>
<path d="M0.0407715 1.41187C78.2655 4.26814 141.605 33.9322 222.234 30.0688C285.626 27.03 347.29 14.0914 411.285 14.6744C465.881 15.1691 520.186 25.9464 574.126 30.3574C631.564 35.0688 686.545 34.3209 741.474 23.1019C804.304 10.2751 861.263 17.2716 921.636 31.5588C948.064 37.8073 973.556 45.9462 1000.46 51.4997C1028.76 57.336 1059.5 56.5998 1088.52 53.0368C1155.54 44.7919 1215.59 18.9794 1283.26 13.7734C1354.82 8.26692 1429.8 36.3232 1498.96 20.0866" stroke="url(#paint66_linear)" stroke-miterlimit="10"/>
<path d="M0.0407715 1.11279C78.3904 3.91016 141.709 33.7507 222.432 29.7932C285.834 26.6778 347.706 13.9925 411.671 14.6697C466.277 15.2586 520.342 26.4128 574.261 30.9003C631.72 35.6824 686.888 34.7165 741.505 22.891C804.887 9.16332 861.21 16.566 922.156 31.4304C948.366 37.8084 973.921 46.2593 1000.89 51.595C1029.54 57.2545 1059.36 56.7951 1088.68 53.0731C1155.82 44.5456 1215.54 18.7097 1283.45 13.1267C1354.92 7.23755 1430.22 37.0074 1498.92 19.9111" stroke="url(#paint67_linear)" stroke-miterlimit="10"/>
<path d="M0.0407715 1C78.4737 3.71492 141.678 33.7322 222.484 29.6274C285.886 26.406 347.842 13.9327 411.931 14.6629C466.548 15.2872 520.404 26.9125 574.313 31.506C631.772 36.4 687.232 35.2751 741.526 22.8548C805.397 8.23193 860.929 15.8997 922.458 31.3294C978.667 45.4163 1024.98 61.4526 1088.63 53.1959C1155.95 44.4623 1215.38 18.8443 1283.53 12.8137C1354.92 6.49462 1430.61 37.8723 1499 19.8808" stroke="url(#paint68_linear)" stroke-miterlimit="10"/>
<defs>
<linearGradient id="paint0_linear" x1="1.08063e+06" y1="415.092" x2="1.08063e+06" y2="340.872" gradientUnits="userSpaceOnUse">
<stop stop-color="#592CB8"/>
<stop offset="1" stop-color="#2C66B8"/>
</linearGradient>
<linearGradient id="paint1_linear" x1="1.0806e+06" y1="676.649" x2="1.0806e+06" y2="402.397" gradientUnits="userSpaceOnUse">
<stop stop-color="#592CB8"/>
<stop offset="1" stop-color="#2C66B8"/>
</linearGradient>
<linearGradient id="paint2_linear" x1="1.08063e+06" y1="983.658" x2="1.08063e+06" y2="477.196" gradientUnits="userSpaceOnUse">
<stop stop-color="#592CB8"/>
<stop offset="1" stop-color="#2C66B8"/>
</linearGradient>
<linearGradient id="paint3_linear" x1="1.08063e+06" y1="1441.85" x2="1.08063e+06" y2="592.964" gradientUnits="userSpaceOnUse">
<stop stop-color="#592CB8"/>
<stop offset="1" stop-color="#2C66B8"/>
</linearGradient>
<linearGradient id="paint4_linear" x1="1.08063e+06" y1="2202.72" x2="1.08063e+06" y2="789.192" gradientUnits="userSpaceOnUse">
<stop stop-color="#592CB8"/>
<stop offset="1" stop-color="#2C66B8"/>
</linearGradient>
<linearGradient id="paint5_linear" x1="1.08063e+06" y1="3039.56" x2="1.08063e+06" y2="1006.11" gradientUnits="userSpaceOnUse">
<stop stop-color="#592CB8"/>
<stop offset="1" stop-color="#2C66B8"/>
</linearGradient>
<linearGradient id="paint6_linear" x1="1.08063e+06" y1="4058.09" x2="1.08063e+06" y2="1271.31" gradientUnits="userSpaceOnUse">
<stop stop-color="#592CB8"/>
<stop offset="1" stop-color="#2C66B8"/>
</linearGradient>
<linearGradient id="paint7_linear" x1="1.08061e+06" y1="5129" x2="1.08061e+06" y2="1550.63" gradientUnits="userSpaceOnUse">
<stop stop-color="#592CB8"/>
<stop offset="1" stop-color="#2C66B8"/>
</linearGradient>
<linearGradient id="paint8_linear" x1="1.08064e+06" y1="6203.15" x2="1.08064e+06" y2="1830.97" gradientUnits="userSpaceOnUse">
<stop stop-color="#592CB8"/>
<stop offset="1" stop-color="#2C66B8"/>
</linearGradient>
<linearGradient id="paint9_linear" x1="1.08061e+06" y1="7224.16" x2="1.08061e+06" y2="2097.27" gradientUnits="userSpaceOnUse">
<stop stop-color="#592CB8"/>
<stop offset="1" stop-color="#2C66B8"/>
</linearGradient>
<linearGradient id="paint10_linear" x1="1.08063e+06" y1="8237.01" x2="1.08063e+06" y2="2361.17" gradientUnits="userSpaceOnUse">
<stop stop-color="#592CB8"/>
<stop offset="1" stop-color="#2C66B8"/>
</linearGradient>
<linearGradient id="paint11_linear" x1="1.08063e+06" y1="9014.82" x2="1.08063e+06" y2="2562.9" gradientUnits="userSpaceOnUse">
<stop stop-color="#592CB8"/>
<stop offset="1" stop-color="#2C66B8"/>
</linearGradient>
<linearGradient id="paint12_linear" x1="1.08063e+06" y1="9590.98" x2="1.08063e+06" y2="2711.04" gradientUnits="userSpaceOnUse">
<stop stop-color="#592CB8"/>
<stop offset="1" stop-color="#2C66B8"/>
</linearGradient>
<linearGradient id="paint13_linear" x1="1.08066e+06" y1="9898.23" x2="1.08066e+06" y2="2787.63" gradientUnits="userSpaceOnUse">
<stop stop-color="#592CB8"/>
<stop offset="1" stop-color="#2C66B8"/>
</linearGradient>
<linearGradient id="paint14_linear" x1="1.08063e+06" y1="10034.3" x2="1.08063e+06" y2="2818.38" gradientUnits="userSpaceOnUse">
<stop stop-color="#592CB8"/>
<stop offset="1" stop-color="#2C66B8"/>
</linearGradient>
<linearGradient id="paint15_linear" x1="1.08061e+06" y1="10172.3" x2="1.08061e+06" y2="2849.62" gradientUnits="userSpaceOnUse">
<stop stop-color="#592CB8"/>
<stop offset="1" stop-color="#2C66B8"/>
</linearGradient>
<linearGradient id="paint16_linear" x1="1.08061e+06" y1="10250.1" x2="1.08061e+06" y2="2865.24" gradientUnits="userSpaceOnUse">
<stop stop-color="#592CB8"/>
<stop offset="1" stop-color="#2C66B8"/>
</linearGradient>
<linearGradient id="paint17_linear" x1="1.08065e+06" y1="10272.1" x2="1.08065e+06" y2="2866.32" gradientUnits="userSpaceOnUse">
<stop stop-color="#592CB8"/>
<stop offset="1" stop-color="#2C66B8"/>
</linearGradient>
<linearGradient id="paint18_linear" x1="1.08063e+06" y1="10245.1" x2="1.08063e+06" y2="2854.68" gradientUnits="userSpaceOnUse">
<stop stop-color="#592CB8"/>
<stop offset="1" stop-color="#2C66B8"/>
</linearGradient>
<linearGradient id="paint19_linear" x1="1.08063e+06" y1="10173.8" x2="1.08063e+06" y2="2831.55" gradientUnits="userSpaceOnUse">
<stop stop-color="#592CB8"/>
<stop offset="1" stop-color="#2C66B8"/>
</linearGradient>
<linearGradient id="paint20_linear" x1="1.08064e+06" y1="10011" x2="1.08064e+06" y2="2784.54" gradientUnits="userSpaceOnUse">
<stop stop-color="#592CB8"/>
<stop offset="1" stop-color="#2C66B8"/>
</linearGradient>
<linearGradient id="paint21_linear" x1="1.08064e+06" y1="9901.94" x2="1.08064e+06" y2="2751.74" gradientUnits="userSpaceOnUse">
<stop stop-color="#592CB8"/>
<stop offset="1" stop-color="#2C66B8"/>
</linearGradient>
<linearGradient id="paint22_linear" x1="1.0806e+06" y1="9770.21" x2="1.0806e+06" y2="2713.09" gradientUnits="userSpaceOnUse">
<stop stop-color="#592CB8"/>
<stop offset="1" stop-color="#2C66B8"/>
</linearGradient>
<linearGradient id="paint23_linear" x1="1.08063e+06" y1="9630.43" x2="1.08063e+06" y2="2672.46" gradientUnits="userSpaceOnUse">
<stop stop-color="#592CB8"/>
<stop offset="1" stop-color="#2C66B8"/>
</linearGradient>
<linearGradient id="paint24_linear" x1="1.08066e+06" y1="9482.64" x2="1.08066e+06" y2="2629.81" gradientUnits="userSpaceOnUse">
<stop stop-color="#592CB8"/>
<stop offset="1" stop-color="#2C66B8"/>
</linearGradient>
<linearGradient id="paint25_linear" x1="1.08061e+06" y1="9332.89" x2="1.08061e+06" y2="2586.72" gradientUnits="userSpaceOnUse">
<stop stop-color="#592CB8"/>
<stop offset="1" stop-color="#2C66B8"/>
</linearGradient>
<linearGradient id="paint26_linear" x1="1.08063e+06" y1="9137.87" x2="1.08063e+06" y2="2531.81" gradientUnits="userSpaceOnUse">
<stop stop-color="#592CB8"/>
<stop offset="1" stop-color="#2C66B8"/>
</linearGradient>
<linearGradient id="paint27_linear" x1="1.0806e+06" y1="8998.36" x2="1.0806e+06" y2="2491.55" gradientUnits="userSpaceOnUse">
<stop stop-color="#592CB8"/>
<stop offset="1" stop-color="#2C66B8"/>
</linearGradient>
<linearGradient id="paint28_linear" x1="1.08061e+06" y1="8873.98" x2="1.08061e+06" y2="2455.32" gradientUnits="userSpaceOnUse">
<stop stop-color="#592CB8"/>
<stop offset="1" stop-color="#2C66B8"/>
</linearGradient>
<linearGradient id="paint29_linear" x1="1.0806e+06" y1="8776.26" x2="1.0806e+06" y2="2426.17" gradientUnits="userSpaceOnUse">
<stop stop-color="#592CB8"/>
<stop offset="1" stop-color="#2C66B8"/>
</linearGradient>
<linearGradient id="paint30_linear" x1="1.08066e+06" y1="8691.96" x2="1.08066e+06" y2="2400.49" gradientUnits="userSpaceOnUse">
<stop stop-color="#592CB8"/>
<stop offset="1" stop-color="#2C66B8"/>
</linearGradient>
<linearGradient id="paint31_linear" x1="1.08063e+06" y1="8650.1" x2="1.08063e+06" y2="2386.03" gradientUnits="userSpaceOnUse">
<stop stop-color="#592CB8"/>
<stop offset="1" stop-color="#2C66B8"/>
</linearGradient>
<linearGradient id="paint32_linear" x1="1.08063e+06" y1="8630.06" x2="1.08063e+06" y2="2377.29" gradientUnits="userSpaceOnUse">
<stop stop-color="#592CB8"/>
<stop offset="1" stop-color="#2C66B8"/>
</linearGradient>
<linearGradient id="paint33_linear" x1="1.08065e+06" y1="8574.82" x2="1.08065e+06" y2="2359.24" gradientUnits="userSpaceOnUse">
<stop stop-color="#592CB8"/>
<stop offset="1" stop-color="#2C66B8"/>
</linearGradient>
<linearGradient id="paint34_linear" x1="1.08063e+06" y1="8491.85" x2="1.08063e+06" y2="2333.87" gradientUnits="userSpaceOnUse">
<stop stop-color="#592CB8"/>
<stop offset="1" stop-color="#2C66B8"/>
</linearGradient>
<linearGradient id="paint35_linear" x1="1.08065e+06" y1="8370.77" x2="1.08065e+06" y2="2298.41" gradientUnits="userSpaceOnUse">
<stop stop-color="#592CB8"/>
<stop offset="1" stop-color="#2C66B8"/>
</linearGradient>
<linearGradient id="paint36_linear" x1="1.08063e+06" y1="8225.76" x2="1.08063e+06" y2="2256.67" gradientUnits="userSpaceOnUse">
<stop stop-color="#592CB8"/>
<stop offset="1" stop-color="#2C66B8"/>
</linearGradient>
<linearGradient id="paint37_linear" x1="1.08065e+06" y1="8052.42" x2="1.08065e+06" y2="2207.43" gradientUnits="userSpaceOnUse">
<stop stop-color="#592CB8"/>
<stop offset="1" stop-color="#2C66B8"/>
</linearGradient>
<linearGradient id="paint38_linear" x1="1.08062e+06" y1="7859.15" x2="1.08062e+06" y2="2153" gradientUnits="userSpaceOnUse">
<stop stop-color="#592CB8"/>
<stop offset="1" stop-color="#2C66B8"/>
</linearGradient>
<linearGradient id="paint39_linear" x1="1.08063e+06" y1="7640.28" x2="1.08063e+06" y2="2091.8" gradientUnits="userSpaceOnUse">
<stop stop-color="#592CB8"/>
<stop offset="1" stop-color="#2C66B8"/>
</linearGradient>
<linearGradient id="paint40_linear" x1="1.08061e+06" y1="7397.4" x2="1.08061e+06" y2="2024.27" gradientUnits="userSpaceOnUse">
<stop stop-color="#592CB8"/>
<stop offset="1" stop-color="#2C66B8"/>
</linearGradient>
<linearGradient id="paint41_linear" x1="1.08063e+06" y1="7146.87" x2="1.08063e+06" y2="1954.83" gradientUnits="userSpaceOnUse">
<stop stop-color="#592CB8"/>
<stop offset="1" stop-color="#2C66B8"/>
</linearGradient>
<linearGradient id="paint42_linear" x1="1.08063e+06" y1="6876.1" x2="1.08063e+06" y2="1880.06" gradientUnits="userSpaceOnUse">
<stop stop-color="#592CB8"/>
<stop offset="1" stop-color="#2C66B8"/>
</linearGradient>
<linearGradient id="paint43_linear" x1="1.08063e+06" y1="6603.26" x2="1.08063e+06" y2="1804.87" gradientUnits="userSpaceOnUse">
<stop stop-color="#592CB8"/>
<stop offset="1" stop-color="#2C66B8"/>
</linearGradient>
<linearGradient id="paint44_linear" x1="1.08063e+06" y1="6316.14" x2="1.08063e+06" y2="1725.96" gradientUnits="userSpaceOnUse">
<stop stop-color="#592CB8"/>
<stop offset="1" stop-color="#2C66B8"/>
</linearGradient>
<linearGradient id="paint45_linear" x1="1.08063e+06" y1="6030.33" x2="1.08063e+06" y2="1647.52" gradientUnits="userSpaceOnUse">
<stop stop-color="#592CB8"/>
<stop offset="1" stop-color="#2C66B8"/>
</linearGradient>
<linearGradient id="paint46_linear" x1="1.08058e+06" y1="5750.53" x2="1.08058e+06" y2="1570.83" gradientUnits="userSpaceOnUse">
<stop stop-color="#592CB8"/>
<stop offset="1" stop-color="#2C66B8"/>
</linearGradient>
<linearGradient id="paint47_linear" x1="1.08067e+06" y1="5450.89" x2="1.08067e+06" y2="1488.9" gradientUnits="userSpaceOnUse">
<stop stop-color="#592CB8"/>
<stop offset="1" stop-color="#2C66B8"/>
</linearGradient>
<linearGradient id="paint48_linear" x1="1.08063e+06" y1="5266.11" x2="1.08063e+06" y2="1438.05" gradientUnits="userSpaceOnUse">
<stop stop-color="#592CB8"/>
<stop offset="1" stop-color="#2C66B8"/>
</linearGradient>
<linearGradient id="paint49_linear" x1="1.08063e+06" y1="5038.44" x2="1.08063e+06" y2="1375.75" gradientUnits="userSpaceOnUse">
<stop stop-color="#592CB8"/>
<stop offset="1" stop-color="#2C66B8"/>
</linearGradient>
<linearGradient id="paint50_linear" x1="1.08065e+06" y1="4857.48" x2="1.08065e+06" y2="1326.18" gradientUnits="userSpaceOnUse">
<stop stop-color="#592CB8"/>
<stop offset="1" stop-color="#2C66B8"/>
</linearGradient>
<linearGradient id="paint51_linear" x1="1.08063e+06" y1="4711.09" x2="1.08063e+06" y2="1286" gradientUnits="userSpaceOnUse">
<stop stop-color="#592CB8"/>
<stop offset="1" stop-color="#2C66B8"/>
</linearGradient>
<linearGradient id="paint52_linear" x1="1.08059e+06" y1="4589.37" x2="1.08059e+06" y2="1252.55" gradientUnits="userSpaceOnUse">
<stop stop-color="#592CB8"/>
<stop offset="1" stop-color="#2C66B8"/>
</linearGradient>
<linearGradient id="paint53_linear" x1="1.08061e+06" y1="4485.83" x2="1.08061e+06" y2="1224.1" gradientUnits="userSpaceOnUse">
<stop stop-color="#592CB8"/>
<stop offset="1" stop-color="#2C66B8"/>
</linearGradient>
<linearGradient id="paint54_linear" x1="1.0806e+06" y1="4401.63" x2="1.0806e+06" y2="1200.93" gradientUnits="userSpaceOnUse">
<stop stop-color="#592CB8"/>
<stop offset="1" stop-color="#2C66B8"/>
</linearGradient>
<linearGradient id="paint55_linear" x1="1.08061e+06" y1="4404.24" x2="1.08061e+06" y2="1200.74" gradientUnits="userSpaceOnUse">
<stop stop-color="#592CB8"/>
<stop offset="1" stop-color="#2C66B8"/>
</linearGradient>
<linearGradient id="paint56_linear" x1="1.08066e+06" y1="4518.95" x2="1.08066e+06" y2="1230.17" gradientUnits="userSpaceOnUse">
<stop stop-color="#592CB8"/>
<stop offset="1" stop-color="#2C66B8"/>
</linearGradient>
<linearGradient id="paint57_linear" x1="1.08064e+06" y1="4637.82" x2="1.08064e+06" y2="1260.82" gradientUnits="userSpaceOnUse">
<stop stop-color="#592CB8"/>
<stop offset="1" stop-color="#2C66B8"/>
</linearGradient>
<linearGradient id="paint58_linear" x1="1.08063e+06" y1="4758.77" x2="1.08063e+06" y2="1292.16" gradientUnits="userSpaceOnUse">
<stop stop-color="#592CB8"/>
<stop offset="1" stop-color="#2C66B8"/>
</linearGradient>
<linearGradient id="paint59_linear" x1="1.08059e+06" y1="4883.2" x2="1.08059e+06" y2="1324.52" gradientUnits="userSpaceOnUse">
<stop stop-color="#592CB8"/>
<stop offset="1" stop-color="#2C66B8"/>
</linearGradient>
<linearGradient id="paint60_linear" x1="1.0806e+06" y1="4998.53" x2="1.0806e+06" y2="1354.59" gradientUnits="userSpaceOnUse">
<stop stop-color="#592CB8"/>
<stop offset="1" stop-color="#2C66B8"/>
</linearGradient>
<linearGradient id="paint61_linear" x1="1.08062e+06" y1="5111.29" x2="1.08062e+06" y2="1384.06" gradientUnits="userSpaceOnUse">
<stop stop-color="#592CB8"/>
<stop offset="1" stop-color="#2C66B8"/>
</linearGradient>
<linearGradient id="paint62_linear" x1="1.08062e+06" y1="5215.31" x2="1.08062e+06" y2="1411.28" gradientUnits="userSpaceOnUse">
<stop stop-color="#592CB8"/>
<stop offset="1" stop-color="#2C66B8"/>
</linearGradient>
<linearGradient id="paint63_linear" x1="1.08063e+06" y1="5310.75" x2="1.08063e+06" y2="1436.32" gradientUnits="userSpaceOnUse">
<stop stop-color="#592CB8"/>
<stop offset="1" stop-color="#2C66B8"/>
</linearGradient>
<linearGradient id="paint64_linear" x1="1.08062e+06" y1="5402.26" x2="1.08062e+06" y2="1460.42" gradientUnits="userSpaceOnUse">
<stop stop-color="#592CB8"/>
<stop offset="1" stop-color="#2C66B8"/>
</linearGradient>
<linearGradient id="paint65_linear" x1="1.08063e+06" y1="5471.14" x2="1.08063e+06" y2="1478.53" gradientUnits="userSpaceOnUse">
<stop stop-color="#592CB8"/>
<stop offset="1" stop-color="#2C66B8"/>
</linearGradient>
<linearGradient id="paint66_linear" x1="1.08063e+06" y1="5530.99" x2="1.08063e+06" y2="1494.35" gradientUnits="userSpaceOnUse">
<stop stop-color="#592CB8"/>
<stop offset="1" stop-color="#2C66B8"/>
</linearGradient>
<linearGradient id="paint67_linear" x1="1.0806e+06" y1="5567.52" x2="1.0806e+06" y2="1503.99" gradientUnits="userSpaceOnUse">
<stop stop-color="#592CB8"/>
<stop offset="1" stop-color="#2C66B8"/>
</linearGradient>
<linearGradient id="paint68_linear" x1="1.08066e+06" y1="5537.07" x2="1.08066e+06" y2="1495.69" gradientUnits="userSpaceOnUse">
<stop stop-color="#592CB8"/>
<stop offset="1" stop-color="#2C66B8"/>
</linearGradient>
</defs>
</svg>
