<svg width="1500" height="257" viewBox="0 0 1500 257" fill="none" xmlns="http://www.w3.org/2000/svg">
<path d="M1571.23 0.853455C1024.21 0.853455 477.2 0.853455 -69.815 0.853455" stroke="url(#paint0_linear)" stroke-miterlimit="10"/>
<path d="M1571.23 8.0101C1294.24 7.9572 1017.38 9.23654 740.451 10.6842C620.632 11.3143 499.992 11.1074 380.185 9.78001C230.211 8.12072 80.1699 9.68383 -69.7692 8.0101" stroke="url(#paint1_linear)" stroke-miterlimit="10"/>
<path d="M1571.23 15.061C1492.74 15.061 1414.24 14.806 1335.76 14.9311C1265.63 15.0417 1195.66 17.4417 1125.55 17.8553C994.95 18.6248 864.373 17.7303 733.784 18.6393C617.874 19.4473 500.767 21.5875 384.937 18.3218C317.426 16.398 250.61 15.5227 183.043 14.7291C98.7112 13.7383 14.4823 16.4269 -69.815 15.061" stroke="url(#paint2_linear)" stroke-miterlimit="10"/>
<path d="M1571.23 22.0155C1493.87 22.0155 1416.31 21.4672 1338.98 22.0588C1266.3 22.6167 1194.05 26.5268 1121.44 27.532C990.585 29.3452 860.76 24.1654 730.046 25.0888C615.025 25.8872 501.633 32.3704 386.487 26.5701C319.181 23.1794 253.961 20.5245 186.165 19.7502C100.694 18.7883 15.6447 23.468 -69.815 22.0155" stroke="url(#paint3_linear)" stroke-miterlimit="10"/>
<path d="M1571.23 28.8354C1495.27 28.8354 1418.76 27.9601 1342.86 29.1673C1266.96 30.3745 1192.15 35.9295 1116.48 37.7235C1047.69 39.3539 979.873 38.9163 911.45 35.3668C850.127 32.1829 790.56 29.8839 728.736 30.2302C674.547 30.538 623.777 34.0105 570.261 37.2474C509.018 40.9555 445.963 39.2241 385.29 34.5011C318.509 29.2972 255.522 24.3193 187.328 23.7517C101.31 23.0303 16.2601 30.0811 -69.815 28.8354" stroke="url(#paint4_linear)" stroke-miterlimit="10"/>
<path d="M1571.23 35.5592C1496.92 35.5592 1421.47 34.3808 1347.28 36.2662C1268.01 38.2766 1190.09 45.5582 1110.99 48.29C1043.07 50.6659 974.7 49.0374 907.849 43.4516C848.167 38.5363 790.469 34.1452 729.465 34.3472C672.974 34.5347 621.863 40.5707 567.024 45.4524C504.779 50.993 443.182 48.8912 381.883 42.1723C316.184 34.958 255.534 27.1858 186.872 26.9789C100.706 26.7144 16.4994 36.3672 -69.815 35.5544" stroke="url(#paint5_linear)" stroke-miterlimit="10"/>
<path d="M1571.23 42.1771C1498.67 42.206 1424.33 40.7342 1352.03 43.3073C1269.02 46.2364 1187.92 55.2735 1105.22 59.049C1035.82 62.2137 971.679 59.2702 904.738 51.32C847.427 44.5097 791.916 37.6898 731.801 37.6754C672.359 37.6754 619.481 46.7414 563.07 53.3593C498.807 60.8959 439.547 58.7027 376.754 49.5982C312.845 40.335 254.166 29.3981 185.128 29.6386C99.0872 29.9657 16.4652 42.3983 -69.815 42.1771" stroke="url(#paint6_linear)" stroke-miterlimit="10"/>
<path d="M1571.23 48.6892C1500.51 48.7325 1427.29 47.0972 1356.98 50.2619C1270.17 54.1673 1186.04 64.9503 1099.53 69.8176C1029.16 73.7758 968.078 69.5434 902.219 58.9528C847.883 50.2138 794.514 40.7438 735.38 40.4456C672.883 40.1282 616.541 52.5801 558.739 60.9632C491.992 70.6448 435 68.5863 370.498 56.7885C309.073 45.5534 251.796 31.1295 182.462 31.9376C96.7284 32.9379 16.283 48.2275 -69.792 48.6892" stroke="url(#paint7_linear)" stroke-miterlimit="10"/>
<path d="M1571.23 55.0955C1502.32 55.1532 1430.24 53.4122 1361.84 57.1011C1271.31 61.9828 1184.14 74.4588 1094.03 80.413C1022.23 85.16 964.613 79.7252 900.145 66.3451C849.159 55.7641 797.945 43.543 739.63 42.8985C674.08 42.1819 613.213 58.3564 554.078 68.2977C523.104 73.4776 490.454 78.3304 456.687 77.2146C423.638 76.1181 392.344 70.2456 363.444 63.7479C305.187 50.6804 248.434 32.6927 179.111 34.0682C93.7539 35.766 15.9979 53.9028 -69.8264 55.0811" stroke="url(#paint8_linear)" stroke-miterlimit="10"/>
<path d="M1571.17 61.3912C1503.94 61.4634 1433.03 59.679 1366.5 63.796C1272.52 69.5963 1182.62 83.6835 1089.17 90.6669C1015.74 96.1595 961.446 89.6233 898.721 73.4872C851.165 61.2518 802.094 46.2989 744.304 45.2841C675.927 44.0865 609.829 64.0653 549.566 75.3726C517.999 81.298 483.184 87.5456 447.924 86.17C414.875 84.8811 383.912 77.8399 356.276 70.539C301.176 55.9757 245.004 34.3568 175.511 36.2854C90.5183 38.6517 15.7595 59.5444 -69.8369 61.3912" stroke="url(#paint9_linear)" stroke-miterlimit="10"/>
<path d="M1571.16 67.5764C1505.53 67.6629 1435.67 65.8786 1370.84 70.2986C1273.79 76.9213 1181.48 92.4946 1085.14 100.411C1048.45 103.422 1013.68 105.163 977.753 99.8821C948.476 95.5776 922.721 88.0217 897.877 80.3842C853.432 66.7299 806.514 49.2183 748.861 47.8476C677.977 46.1594 606.569 69.7599 545.326 82.2214C513.212 88.7576 476.254 96.3278 439.65 94.7263C406.453 93.2834 375.9 85.1697 349.449 77.157C297.278 61.3624 241.778 36.3624 171.909 38.7816C87.2239 41.7202 15.5649 65.2004 -69.8834 67.6004" stroke="url(#paint10_linear)" stroke-miterlimit="10"/>
<path d="M1571.15 73.6605C1506.9 73.7519 1437.99 71.9771 1374.65 76.5991C1275.14 83.8615 1181.07 100.772 1082.3 109.434C1045.49 112.661 1010.82 114.662 975.075 108.669C946.072 103.778 921.354 95.3852 897.718 86.9973C855.883 72.1695 810.925 52.46 752.987 50.8007C715.961 49.7378 678.73 57.89 646.752 64.7917C611.276 72.4485 577.167 81.173 541.702 88.8394C509.109 95.8806 470.362 104.519 432.527 102.715C399.091 101.123 369.016 92.182 343.512 83.5729C293.733 66.7395 239.283 38.9115 168.741 41.7299C84.204 45.0966 15.5423 70.9142 -69.8946 73.6797" stroke="url(#paint11_linear)" stroke-miterlimit="10"/>
<path d="M1571.14 79.634C1508.04 79.7253 1439.86 77.9458 1377.73 82.6543C1276.47 90.3256 1181.31 108.39 1080.89 117.591C1044.25 120.958 1009.32 123.107 973.935 116.687C944.966 111.43 920.989 102.316 898.208 93.3508C858.116 77.5803 814.856 56.2355 756.212 54.3934C718.171 53.2103 679.858 62.0406 647.379 69.3415C610.717 77.5899 575.583 86.9781 538.921 95.2361C505.873 102.686 465.986 112.002 427.137 110.102C393.347 108.448 363.785 98.9491 338.976 89.8446C290.736 72.1503 237.949 42.3263 166.279 45.3323C81.7422 48.8769 15.7015 76.7675 -69.9063 79.6147" stroke="url(#paint12_linear)" stroke-miterlimit="10"/>
<path d="M1571.12 85.5015C1508.9 85.5784 1441.14 83.7652 1379.93 88.4353C1277.81 96.2268 1182.39 115.239 1081.2 124.69C1045.06 128.056 1009.48 130.25 974.596 123.785C945.388 118.375 921.741 108.77 899.382 99.4251C859.928 82.9091 817.945 60.7083 758.07 58.9191C719.186 57.7552 680.77 66.6769 647.835 74.3097C610.398 82.9669 574.615 92.836 537.19 101.503C503.719 109.256 463.662 118.721 424.015 116.836C389.826 115.21 360.766 105.538 336.264 96.044C288.4 77.5032 238.132 46.9241 164.786 49.9012C80.0334 53.34 15.987 82.9476 -69.9741 85.4919" stroke="url(#paint13_linear)" stroke-miterlimit="10"/>
<path d="M1571.1 91.273C1509.12 91.4365 1441.58 89.3972 1380.63 94.1587C1279.2 102.099 1185 121.679 1084.6 131.351C1048.57 134.819 1013.01 136.896 978.152 130.509C948.522 125.07 924.407 115.35 901.718 105.889C861.535 89.1327 819.107 66.6481 758.445 64.5511C719.288 63.1996 681.1 72.0107 648.017 79.7637C610.523 88.5556 574.808 98.6172 537.326 107.414C503.696 115.311 463.844 124.646 423.9 122.626C389.484 120.885 360.594 111.194 336.047 101.594C287.99 82.7937 238.678 52.6186 164.752 55.4226C79.7592 58.6354 16.3739 89.051 -69.9405 91.273" stroke="url(#paint14_linear)" stroke-miterlimit="10"/>
<path d="M1571.09 96.9146C1508.85 97.2128 1441.51 94.6396 1380.34 99.733C1280.72 108.029 1188.64 127.931 1090.07 137.945C1053.61 141.653 1018.98 143.582 983.622 137.151C953.456 131.673 928.487 122.054 904.966 112.675C863.45 96.1018 819.233 73.3911 758.571 70.5294C719.653 68.6921 681.328 77.5273 648.53 85.2755C611.492 94.024 576.312 104.095 539.286 112.853C505.725 120.794 465.872 130.057 425.986 127.657C391.672 125.594 362.361 115.763 337.472 106.269C289.164 87.8486 238.428 58.241 165.39 60.9632C80.1925 64.1423 16.602 94.731 -69.9175 96.9146" stroke="url(#paint15_linear)" stroke-miterlimit="10"/>
<path d="M1571.07 102.46C1508.47 102.816 1441.31 99.5261 1379.77 104.918C1282.18 113.469 1192.5 133.631 1096.01 143.875C1059.24 147.79 1025.42 149.536 989.662 143.187C959.029 137.748 933.057 128.379 908.658 119.072C865.752 102.72 819.495 80.0908 758.89 76.5365C720.325 74.2712 682.296 82.9236 649.795 90.6381C613.384 99.2953 578.945 109.304 542.557 117.956C509.098 125.911 469.622 134.91 429.917 132.169C395.569 129.793 365.734 119.919 340.287 110.526C291.34 92.4898 238.941 63.6229 166.461 66.3066C80.8876 69.4713 16.9439 100.257 -69.9517 102.431" stroke="url(#paint16_linear)" stroke-miterlimit="10"/>
<path d="M1571.05 107.9C1508.02 108.241 1440.89 104.081 1378.92 109.746C1283.56 118.457 1196.49 138.825 1102.27 149.247C1065.34 153.331 1032.17 154.865 996.112 148.699C964.932 143.37 937.992 134.27 912.647 125.132C867.951 109.073 820.076 86.7713 759.3 82.5629C721.192 79.9273 683.835 88.2045 651.652 95.8661C616.039 104.35 582.478 114.272 546.888 122.766C513.554 130.726 474.841 139.277 435.376 136.233C400.869 133.563 370.418 123.728 344.207 114.465C294.281 96.828 240.012 68.8461 167.92 71.5154C81.8223 74.7041 17.3886 105.697 -70.0312 107.885" stroke="url(#paint17_linear)" stroke-miterlimit="10"/>
<path d="M1571.04 113.233C1507.49 113.503 1440.39 108.342 1377.86 114.253C1284.89 123.04 1200.59 143.591 1108.8 154.071C1071.9 158.294 1039.18 159.607 1002.94 153.711C971.2 148.545 943.314 139.763 916.932 130.904C870.207 115.21 820.873 93.4421 759.87 88.6278C686.251 82.813 611.857 113.075 552.198 127.34C518.99 135.285 481.325 143.245 442.202 139.912C407.421 136.945 376.333 127.205 349.221 118.081C298.03 100.858 241.733 73.8769 169.823 76.5606C83.087 79.7926 18.0378 111.011 -70.0089 113.233" stroke="url(#paint18_linear)" stroke-miterlimit="10"/>
<path d="M1571.01 118.457C1506.91 118.606 1439.8 112.339 1376.62 118.457C1286.14 127.248 1204.75 147.896 1115.51 158.409C1078.73 162.738 1046.34 163.815 1009.99 158.26C977.673 153.311 948.818 144.919 921.399 136.338C872.646 121.092 821.842 100.05 760.531 94.6397C688.029 88.2526 616.837 117.639 558.284 131.673C525.907 139.421 488.163 147.232 450.112 143.24C414.783 139.537 383.661 130.557 355.011 121.419C302.349 104.634 243.887 78.7441 171.977 81.4567C84.5004 84.7513 18.756 116.206 -70.0313 118.49" stroke="url(#paint19_linear)" stroke-miterlimit="10"/>
<path d="M1570.99 123.579C1506.28 123.579 1439.1 116.11 1375.22 122.453C1287.32 131.183 1208.91 151.917 1122.3 162.373C971.873 180.548 893.399 113.45 761.26 100.608C690.034 93.6778 622.444 122.006 564.95 135.757C532.722 143.452 496.437 150.459 458.864 146.241C423.091 142.225 391.239 133.443 361.438 124.478C307.135 108.126 246.405 83.4142 174.347 86.1701C86.0615 89.5368 19.5422 121.236 -70.0657 123.579" stroke="url(#paint20_linear)" stroke-miterlimit="10"/>
<path d="M1570.97 128.59C1505.63 128.388 1438.34 119.693 1373.69 126.224C1288.41 134.838 1213 155.62 1129.09 165.984C981.776 184.174 892.054 120.294 762.047 106.534C692.052 99.1173 628.518 126.19 572.073 139.676C539.981 147.343 505.28 153.427 468.243 149.016C431.991 144.688 399.33 136.127 368.333 127.349C312.286 111.478 249.243 87.9543 176.877 90.7727C87.7253 94.2404 20.3741 126.171 -70.0999 128.59" stroke="url(#paint21_linear)" stroke-miterlimit="10"/>
<path d="M1570.95 133.496C1504.96 133.087 1437.53 123.122 1372.07 129.817C1289.4 138.272 1217.08 159.078 1135.77 169.303C991.577 187.44 890.755 127.051 762.856 112.372C694.115 104.485 634.9 130.225 579.447 143.447C547.469 151.07 514.488 156.178 478.021 151.623C441.268 147.011 407.764 138.637 375.535 130.076C317.689 114.686 252.32 92.3888 179.59 95.2697C89.5604 98.8432 21.3204 131.014 -70.0539 133.515" stroke="url(#paint22_linear)" stroke-miterlimit="10"/>
<path d="M1570.92 138.296C1504.3 137.676 1436.68 126.436 1370.35 133.27C1290.24 141.533 1220.9 162.348 1142.21 172.4C1001.08 190.431 889.478 133.669 763.676 118.11C696.177 109.761 641.407 134.131 586.899 147.097C555.059 154.672 523.685 158.775 487.821 154.057C450.556 149.151 416.174 140.989 382.737 132.64C323.079 117.73 255.408 96.6645 182.222 99.6176C91.2468 103.292 22.1634 135.689 -70.1226 138.296" stroke="url(#paint23_linear)" stroke-miterlimit="10"/>
<path d="M1570.9 142.985C1503.66 142.158 1435.81 129.672 1368.72 136.622C1291.07 144.669 1224.66 165.48 1148.48 175.334C1010.14 193.226 888.191 140.157 764.428 123.728C698.16 114.926 647.846 137.926 594.227 150.661C562.523 158.188 532.688 161.286 497.508 156.433C459.73 151.229 424.481 143.255 389.849 135.136C328.435 120.736 258.508 100.858 184.821 103.874C92.9334 107.65 22.9954 140.311 -70.1909 142.976" stroke="url(#paint24_linear)" stroke-miterlimit="10"/>
<path d="M1570.88 147.574C1502.97 146.549 1434.96 132.866 1367.05 139.912C1291.73 147.727 1228.13 168.524 1154.31 178.167C1018.63 195.895 886.926 146.511 765.238 129.211C700.075 119.947 654.262 141.672 601.384 154.153C569.783 161.608 541.509 163.772 506.922 158.78C468.653 153.278 432.55 145.462 396.789 137.579C333.689 123.675 261.608 104.966 187.408 108.058C94.6546 111.93 23.8959 144.827 -70.1451 147.574" stroke="url(#paint25_linear)" stroke-miterlimit="10"/>
<path d="M1570.85 152.051C1502.31 150.858 1434.1 136.05 1365.43 143.168C1292.26 150.748 1231.29 171.544 1159.69 180.961C1090.23 190.1 1016.34 179.783 951.462 168.76C888.897 158.126 829.421 144.178 765.921 134.535C701.579 124.762 660.541 145.462 608.062 157.621C538.375 173.757 467 153.292 403.216 140.023C338.589 126.594 264.48 109.001 189.789 112.161C96.2155 116.114 24.6819 149.242 -70.191 152.056" stroke="url(#paint26_linear)" stroke-miterlimit="10"/>
<path d="M1570.83 156.428C1501.65 155.096 1433.43 139.263 1363.88 146.434C1292.66 153.783 1234.12 174.565 1164.44 183.775C1095.62 192.884 1019.78 182.991 954.596 172.896C890.766 163.007 830.013 149.95 766.525 139.676C703.037 129.403 665.954 149.089 614.147 161.074C546.044 176.825 471.696 154.822 409.017 142.485C343.033 129.499 267.044 112.974 191.943 116.177C97.6399 120.202 25.3998 153.552 -70.1683 156.428" stroke="url(#paint27_linear)" stroke-miterlimit="10"/>
<path d="M1570.81 160.694C1500.97 159.251 1432.81 142.533 1362.45 149.747C1292.94 156.87 1236.55 177.643 1168.72 186.675C1100.42 195.741 1022.85 186.252 957.365 176.994C892.407 167.803 830.435 155.529 767.049 144.625C737.146 139.484 715.231 139.272 686.319 145.905C662.82 151.296 642.945 159.126 619.481 164.556C588.175 171.809 563.241 171.607 530.454 166.215C491.057 159.727 452.675 152.268 414.02 145.02C346.93 132.476 269.288 116.913 193.846 120.145C98.8933 124.214 26.0492 157.784 -70.2027 160.694" stroke="url(#paint28_linear)" stroke-miterlimit="10"/>
<path d="M1570.79 164.859C1500.3 163.416 1432.35 145.9 1361.16 153.138C1293.03 160.069 1238.57 180.918 1172.1 189.72C1104.16 198.718 1025.16 189.623 959.417 181.062C893.672 172.501 830.549 160.862 767.369 149.319C738.172 143.986 716.827 143.231 688.166 149.829C665.442 155.062 646.479 162.786 623.812 168.057C592.677 175.301 568.13 174.531 535.913 168.962C496.323 162.118 457.348 154.672 417.963 147.627C350.031 135.478 270.873 120.78 195.317 124.021C99.8397 128.114 26.5055 161.887 -70.2136 164.816" stroke="url(#paint29_linear)" stroke-miterlimit="10"/>
<path d="M1570.76 168.909C1499.62 167.504 1432.05 149.382 1360.07 156.64C1292.95 163.416 1240.18 184.424 1174.64 192.966C1106.79 201.82 1026.94 193.139 960.784 185.189C894.094 177.181 830.424 166.028 767.505 153.85C738.901 148.319 717.795 147.155 689.351 153.754C667.242 158.876 649.043 166.552 627.002 171.722C596.016 178.99 571.492 177.811 539.765 172.03C500.118 164.816 460.687 157.351 420.698 150.455C352.321 138.657 271.842 124.719 196.342 127.936C100.489 132.024 26.8017 165.989 -70.3276 168.909" stroke="url(#paint30_linear)" stroke-miterlimit="10"/>
<path d="M1570.74 172.857C1498.94 171.583 1431.96 153.023 1359.18 160.3C1292.75 166.942 1241.13 188.041 1176.38 196.482C1108.74 205.293 1027.84 196.799 961.513 189.344C894.139 181.769 830.184 170.919 767.562 158.082C739.425 152.311 718.205 150.916 689.909 157.558C668.256 162.642 650.626 170.323 629.008 175.455C598.136 182.784 573.269 181.399 541.918 175.354C502.351 167.726 462.624 160.208 422.191 153.427C353.609 141.927 272.195 128.614 197.003 131.784C100.922 135.829 27.052 169.976 -70.3053 172.857" stroke="url(#paint31_linear)" stroke-miterlimit="10"/>
<path d="M1570.71 176.705C1498.55 175.56 1432.03 156.798 1358.81 164.142C1292.61 170.78 1241.29 191.86 1176.74 200.253C1109.17 209.035 1027.91 200.368 961.559 193.072C893.945 185.636 830.195 174.868 767.494 161.973C739.459 156.202 717.943 154.999 689.841 161.598C668.336 166.648 650.82 174.262 629.316 179.326C598.546 186.569 573.224 185.223 542.169 179.004C502.773 171.116 463 163.541 422.396 156.827C354.144 145.539 271.67 132.375 197.06 135.665C101.116 139.888 26.7671 173.459 -70.3394 176.691" stroke="url(#paint32_linear)" stroke-miterlimit="10"/>
<path d="M1570.68 180.49C1498.36 179.403 1432.04 160.516 1358.65 167.947C1292.55 174.642 1240.97 195.544 1176.38 203.884C1108.81 212.608 1027.73 203.562 961.479 196.217C894.083 188.743 830.606 177.994 767.471 165.71C707.71 154.086 678.091 171.963 628.871 183.111C598.102 190.08 572.62 188.811 541.85 182.568C502.625 174.608 462.921 167.052 422.328 160.415C354.475 149.324 270.93 136.098 196.855 139.667C101.321 144.274 26.0609 176.479 -70.3961 180.418" stroke="url(#paint33_linear)" stroke-miterlimit="10"/>
<path d="M1570.66 184.217C1498.12 183.169 1431.96 164.142 1358.34 171.636C1292.24 178.369 1240.46 199.05 1175.83 207.313C1108.26 215.97 1027.42 206.577 961.274 199.209C894.139 191.73 830.902 181.029 767.403 169.366C708.143 158.477 677.464 176.036 628.21 186.68C597.441 193.346 571.731 192.115 541.235 185.862C502.192 177.859 462.602 170.361 422.02 163.839C354.441 152.975 270.064 139.888 196.604 143.697C101.549 148.622 25.3656 179.427 -70.3848 183.991" stroke="url(#paint34_linear)" stroke-miterlimit="10"/>
<path d="M1570.64 187.878C1497.85 186.858 1431.79 167.677 1357.89 175.204C1291.88 181.928 1239.78 202.374 1175.11 210.55C1107.54 219.063 1026.96 209.434 960.943 202.061C894.128 194.606 831.027 183.987 767.3 172.968C708.462 162.805 676.735 179.975 627.355 190.124C596.506 196.458 570.603 195.227 540.335 188.979C501.508 180.961 461.997 173.55 421.484 167.182C354.076 156.577 269.186 143.812 196.228 147.819C101.64 153.008 24.579 182.366 -70.442 187.493" stroke="url(#paint35_linear)" stroke-miterlimit="10"/>
<path d="M1570.61 191.475C1497.52 190.465 1431.58 171.136 1357.31 178.667C1291.35 185.353 1238.94 205.567 1174.21 213.58C1106.67 221.944 1026.49 212.098 960.499 204.749C894.048 197.343 831.142 186.834 767.152 176.479C708.758 167.028 675.915 183.746 626.307 193.346C595.355 199.339 569.247 198.064 539.172 191.836C500.649 183.778 461.119 176.607 420.755 170.356C353.404 160.045 268.275 147.752 195.738 151.941C101.766 157.342 23.7589 185.218 -70.4303 190.831" stroke="url(#paint36_linear)" stroke-miterlimit="10"/>
<path d="M1570.58 195.005C1497.15 193.995 1431.24 174.497 1356.61 182.02C1290.7 188.652 1237.94 208.597 1173.13 216.446C1105.61 224.623 1025.78 214.624 959.906 207.308C893.809 199.978 831.073 189.614 766.935 179.932C708.974 171.179 674.946 187.401 625.042 196.419C593.942 202.042 567.639 200.695 537.736 194.496C499.445 186.491 460.058 179.455 419.786 173.425C352.4 163.435 267.283 151.811 195.134 156.111C101.765 161.675 22.8695 188.027 -70.4991 194.077" stroke="url(#paint37_linear)" stroke-miterlimit="10"/>
<path d="M1570.56 198.459C1496.76 197.444 1430.85 177.778 1355.8 185.242C1289.94 191.793 1236.8 211.449 1171.97 219.111C1104.48 227.085 1025.07 216.966 959.257 209.713C893.649 202.499 830.936 192.298 766.731 183.304C709.18 175.238 673.898 190.908 623.652 199.315C592.381 204.547 565.874 203.1 536.095 196.91C498.066 188.982 458.857 182.104 418.715 176.32C351.216 166.701 266.36 155.851 194.519 160.252C101.8 165.927 22.0495 190.725 -70.4758 197.146" stroke="url(#paint38_linear)" stroke-miterlimit="10"/>
<path d="M1570.53 201.845C1496.32 200.806 1430.36 180.952 1354.87 188.378C1289.06 194.813 1235.53 214.157 1170.63 221.612C1103.19 229.355 1024.21 219.164 958.55 211.993C893.398 204.875 830.754 194.904 766.525 186.603C709.374 179.22 672.769 194.298 622.147 202.061C590.683 206.871 563.97 205.312 534.283 199.175C496.506 191.341 457.46 184.647 417.438 179.143C349.723 169.895 265.346 159.963 193.766 164.441C101.72 170.212 21.1489 193.399 -70.5103 200.152" stroke="url(#paint39_linear)" stroke-miterlimit="10"/>
<path d="M1570.51 205.153C1495.86 204.086 1429.91 184.04 1353.86 191.364C1288.09 197.703 1234.14 216.72 1169.17 223.944C1101.79 231.433 1023.3 221.208 957.73 214.128C893.034 207.14 830.447 197.42 766.275 189.821C709.511 183.087 671.505 197.55 620.484 204.644C588.803 209.044 561.885 207.318 532.266 201.277C494.753 193.561 455.892 187.072 416.026 181.866C348.048 173.04 264.354 164.133 192.98 168.663C101.618 174.435 20.2833 196.03 -70.5098 203.061" stroke="url(#paint40_linear)" stroke-miterlimit="10"/>
<path d="M1570.49 208.381C1495.37 207.275 1429.35 187.036 1352.82 194.26C1287.02 200.45 1232.65 219.14 1167.6 226.114C1100.28 233.328 1022.35 223.108 956.773 216.134C892.555 209.295 830.013 199.853 765.91 192.961C709.533 186.896 670.046 200.685 618.603 207.077C586.694 211.04 559.583 209.145 529.987 203.134C492.746 195.553 454.08 189.291 414.384 184.41C346.144 176.037 263.294 168.226 192.08 172.809C101.435 178.614 19.3713 198.526 -70.5557 205.798" stroke="url(#paint41_linear)" stroke-miterlimit="10"/>
<path d="M1570.47 211.512C1494.88 210.372 1428.78 189.941 1351.58 197.045C1285.88 203.095 1231.05 221.419 1165.94 228.129C1098.7 235.059 1021.3 224.863 955.872 218.029C892.122 211.353 829.626 202.224 765.659 196.035C709.636 190.609 668.587 203.73 616.746 209.386C584.609 212.902 557.281 210.829 527.673 204.86C490.714 197.432 452.255 191.413 412.755 186.877C344.07 178.989 262.246 172.4 191.145 176.974C101.207 182.746 18.4936 200.984 -70.5787 208.462" stroke="url(#paint42_linear)" stroke-miterlimit="10"/>
<path d="M1570.44 214.59C1494.31 213.383 1428.08 192.754 1350.34 199.723C1284.65 205.606 1229.35 223.564 1164.18 229.995C1097 236.618 1020.18 226.479 954.847 219.76C891.575 213.253 829.125 204.471 765.329 198.983C709.636 194.173 666.969 206.587 614.74 211.488C582.364 214.542 554.831 212.248 525.178 206.361C488.5 199.099 450.253 193.341 410.966 189.167C341.86 181.798 261.175 176.474 190.165 181.053C100.934 186.8 17.6278 203.297 -70.6012 210.949" stroke="url(#paint43_linear)" stroke-miterlimit="10"/>
<path d="M1570.42 217.567C1493.74 216.297 1427.4 195.472 1349.01 202.287C1283.37 207.996 1227.62 225.575 1162.35 231.712C1095.26 238.022 1019.03 227.956 953.798 221.386C890.983 215.061 828.612 206.649 765.021 201.864C709.613 197.694 665.293 209.357 612.666 213.527C580.062 216.11 552.335 213.589 522.58 207.755C486.187 200.674 448.162 195.194 409.108 191.403C339.592 184.593 260.138 180.591 189.162 185.151C100.626 190.831 16.7957 205.586 -70.6241 213.392" stroke="url(#paint44_linear)" stroke-miterlimit="10"/>
<path d="M1570.4 220.453C1493.18 219.116 1426.67 198.093 1347.67 204.745C1282.03 210.271 1225.81 227.46 1160.46 233.294C1093.46 239.272 1017.83 229.307 952.647 222.891C890.276 216.749 827.996 208.741 764.611 204.653C709.442 201.099 663.436 212.002 610.432 215.403C577.588 217.514 549.668 214.753 519.799 209.006C483.689 202.108 445.888 196.911 407.079 193.51C337.096 187.291 258.998 184.655 188.045 189.181C100.295 194.789 15.9637 207.765 -70.647 215.701" stroke="url(#paint45_linear)" stroke-miterlimit="10"/>
<path d="M1570.38 223.247C1492.6 221.838 1425.92 200.642 1346.27 207.092C1280.63 212.425 1223.94 229.225 1158.51 234.742C1091.6 240.369 1016.59 230.529 951.485 224.276C889.536 218.327 827.37 210.747 764.258 207.351C709.283 204.394 661.601 214.522 608.256 217.153C575.207 218.784 547.07 215.773 517.087 210.098C481.258 203.396 443.685 198.496 405.143 195.501C334.714 189.907 257.995 188.662 187.043 193.154C99.931 198.665 15.2689 209.848 -70.5896 217.899" stroke="url(#paint46_linear)" stroke-miterlimit="10"/>
<path d="M1570.35 225.94C1492 224.459 1425.13 203.047 1344.85 209.328C1279.22 214.47 1222.03 230.865 1156.51 236.04C1089.72 241.331 1015.34 231.601 950.243 225.522C888.704 219.75 826.674 212.637 763.825 209.929C708.952 207.563 659.641 216.903 605.885 218.76C572.597 219.909 544.346 216.634 514.078 211.036C478.526 204.533 441.182 199.938 402.92 197.357C242.234 186.156 84.774 205.052 -70.7492 219.962" stroke="url(#paint47_linear)" stroke-miterlimit="10"/>
<path d="M1570.33 228.547C1491.4 226.984 1424.33 205.384 1343.39 211.468C1277.76 216.403 1220.08 232.39 1154.48 237.262C1087.81 242.216 1014.05 232.606 949.091 226.705C887.906 221.131 826.059 214.479 763.494 212.474C708.633 210.699 657.772 219.207 603.617 220.313C570.135 220.986 541.645 217.427 511.206 211.911C476.06 205.5 438.738 201.412 400.846 199.151C244.251 189.806 80.9217 207.154 -70.7154 221.963" stroke="url(#paint48_linear)" stroke-miterlimit="10"/>
<path d="M1570.31 231.048C1490.8 229.403 1423.52 207.616 1341.92 213.498C1276.27 218.245 1218.12 233.804 1152.44 238.349C1085.88 242.952 1012.76 233.472 947.872 227.768C887.017 222.405 825.386 216.225 763.106 214.874C708.143 213.681 655.846 221.386 601.281 221.708C567.605 221.905 538.933 218.067 508.254 212.618C473.336 206.418 436.265 202.681 398.692 200.825C327.113 197.29 254.53 200.301 183.544 204.625C98.3691 209.814 13.0689 215.509 -70.7384 223.863" stroke="url(#paint49_linear)" stroke-miterlimit="10"/>
<path d="M1570.28 233.448C1490.88 231.75 1423.7 209.925 1342.17 215.302C1276.79 219.63 1218.52 234.583 1153.36 239.119C1087.49 243.702 1015.84 234.607 951.519 229.115C889.342 223.824 826.355 217.913 762.708 217.173C706.206 216.514 651.151 223.795 594.774 222.944C560.745 222.429 532.38 217.735 501.189 212.522C468.79 207.106 434.578 204.004 399.98 202.537C326.338 199.416 253.3 204.018 180.536 208.361C96.546 213.373 11.8042 217.23 -70.795 225.608" stroke="url(#paint50_linear)" stroke-miterlimit="10"/>
<path d="M1570.27 235.742C1490.32 233.963 1422.86 211.954 1340.73 217.124C1275.34 221.241 1216.6 235.8 1151.34 240.003C1085.61 244.217 1014.53 235.252 950.299 229.937C888.418 224.81 825.671 219.356 762.354 219.356C705.522 219.356 649.247 225.671 592.403 224.06C558.329 223.098 529.725 218.134 498.294 213.031C466.111 207.808 432.128 205.033 397.826 203.937C323.944 201.575 252.171 207.65 179.418 211.872C95.9758 216.716 11.2455 218.779 -70.7725 227.263" stroke="url(#paint51_linear)" stroke-miterlimit="10"/>
<path d="M1570.25 237.926C1489.69 236.064 1422.1 213.878 1339.27 218.846C1273.86 222.771 1214.67 236.921 1149.31 240.797C1083.71 244.698 1013.19 235.795 949 230.654C887.461 225.714 824.953 220.751 761.967 221.453C704.724 222.093 647.345 227.46 590.022 225.099C555.902 223.689 527.07 218.461 495.434 213.469C463.525 208.434 429.701 205.986 395.718 205.259C321.643 203.667 251.055 211.185 178.325 215.292C95.4064 219.976 10.8013 220.236 -70.7381 228.826" stroke="url(#paint52_linear)" stroke-miterlimit="10"/>
<path d="M1570.23 239.999C1489.11 238.075 1421.23 215.701 1337.83 220.462C1272.4 224.199 1212.75 237.964 1147.29 241.494C1081.83 245.025 1011.88 236.242 947.861 231.279C886.47 226.517 824.258 222.021 761.614 223.43C703.869 224.728 645.51 229.134 587.708 226.032C553.52 224.199 524.482 218.688 492.55 213.811C460.618 208.934 427.228 206.837 393.564 206.471C319.489 205.658 249.835 214.585 177.185 218.577C94.7453 223.108 10.2087 221.568 -70.7837 230.283" stroke="url(#paint53_linear)" stroke-miterlimit="10"/>
<path d="M1570.22 241.961C1488.54 239.941 1420.42 217.432 1336.42 221.973C1270.96 225.527 1210.88 238.873 1145.33 242.105C1080.06 245.323 1010.54 236.598 946.63 231.803C885.421 227.215 823.552 223.189 761.215 225.291C702.901 227.258 643.675 230.707 585.361 226.878C551.275 224.637 521.896 218.837 489.736 214.07C458.169 209.396 424.778 207.597 391.478 207.582C317.404 207.544 248.639 217.836 176.091 221.722C94.0391 226.118 9.70759 222.785 -70.7834 231.64" stroke="url(#paint54_linear)" stroke-miterlimit="10"/>
<path d="M1570.2 243.803C1487.98 241.716 1419.66 219.019 1335.06 223.386C1269.56 226.753 1209.05 239.739 1143.42 242.625C1078.21 245.51 1009.39 236.853 945.468 232.226C884.384 227.821 822.822 224.247 760.85 227.032C701.909 229.677 641.92 232.169 583.07 227.628C548.996 225.007 519.366 218.914 486.966 214.258C455.547 209.747 422.441 208.27 389.45 208.597C315.489 209.323 247.442 220.934 174.997 224.728C93.4119 228.999 9.29699 223.872 -70.8179 232.905" stroke="url(#paint55_linear)" stroke-miterlimit="10"/>
<path d="M1570.18 245.53C1487.45 243.37 1418.89 220.52 1333.72 224.695C1268.2 227.912 1207.23 240.48 1141.56 243.091C1076.49 245.679 1008.23 237.036 944.34 232.582C883.37 228.345 822.116 225.219 760.497 228.672C700.895 232.01 640.165 233.559 580.905 228.321C546.865 225.315 516.984 218.933 484.3 214.373C453.075 210.045 420.14 208.852 387.433 209.511C313.666 210.988 246.2 223.858 173.88 227.571C92.6829 231.741 8.81875 224.834 -70.9087 234.044" stroke="url(#paint56_linear)" stroke-miterlimit="10"/>
<path d="M1570.17 247.136C1486.98 244.909 1418.17 221.895 1332.46 225.902C1266.9 228.97 1205.58 241.158 1139.77 243.481C1074.81 245.77 1007.05 237.142 943.268 232.842C882.378 228.73 821.432 226.075 760.178 230.182C699.881 234.222 638.603 234.848 578.831 228.932C544.859 225.565 514.693 218.894 481.793 214.441C450.727 210.237 417.974 209.367 385.609 210.338C312.104 212.546 245.106 226.604 172.923 230.269C92.0103 234.362 8.48798 225.685 -70.8862 235.117" stroke="url(#paint57_linear)" stroke-miterlimit="10"/>
<path d="M1570.16 248.612C1486.44 246.333 1417.45 223.165 1331.26 227.013C1265.64 229.937 1203.95 241.764 1138.07 243.803C1073.22 245.809 1005.98 237.18 942.254 233.015C881.421 229.038 820.771 226.825 759.859 231.572C698.946 236.319 637.065 236.04 576.825 229.47C542.933 225.772 512.471 218.889 479.388 214.455C448.618 210.324 415.82 209.804 383.854 211.088C310.645 213.974 244.023 229.167 171.988 232.784C91.429 236.829 8.14596 226.397 -70.8863 236.084" stroke="url(#paint58_linear)" stroke-miterlimit="10"/>
<path d="M1570.09 249.988C1485.92 247.66 1416.78 224.339 1330.08 228.037C1264.48 230.822 1202.43 242.293 1136.47 244.068C1071.76 245.809 1004.96 237.151 941.297 233.107C880.498 229.259 820.133 227.465 759.574 232.837C697.875 238.306 635.629 237.166 574.956 229.952C541.132 225.94 510.408 218.798 477.132 214.426C446.487 210.401 413.86 210.17 382.225 211.714C347.706 213.402 314.053 217.269 280.913 221.559C245.152 226.181 208.354 233.232 171.1 235.098C90.8138 239.123 7.81571 226.96 -70.8975 236.935" stroke="url(#paint59_linear)" stroke-miterlimit="10"/>
<path d="M1570.09 251.19C1485.51 248.824 1416.24 225.353 1329.04 228.927C1263.39 231.62 1201 242.774 1134.96 244.284C1070.36 245.78 1004.03 237.07 940.431 233.126C879.632 229.365 819.506 227.994 759.3 233.972C696.929 240.167 634.273 238.2 573.156 230.36C539.48 226.032 508.494 218.673 475.046 214.364C444.527 210.434 412.048 210.463 380.72 212.272C346.27 214.253 312.811 218.457 279.864 223.021C244.365 227.936 207.51 235.353 170.268 237.233C90.2326 241.268 7.49661 227.398 -70.9089 237.714" stroke="url(#paint60_linear)" stroke-miterlimit="10"/>
<path d="M1570.09 252.282C1485.12 249.877 1415.67 226.267 1328.09 229.735C1262.39 232.342 1199.72 243.159 1133.62 244.452C1069.1 245.717 1003.22 236.906 939.667 233.063C878.857 229.394 818.948 228.408 759.095 234.987C696.006 241.898 633.065 239.157 571.515 230.716C537.964 226.118 506.75 218.534 473.132 214.272C442.738 210.425 410.453 210.694 379.353 212.738C344.982 214.999 311.694 219.52 278.919 224.334C243.659 229.514 206.758 237.257 169.516 239.167C89.7426 243.255 7.20028 227.696 -70.9431 238.383" stroke="url(#paint61_linear)" stroke-miterlimit="10"/>
<path d="M1570.09 253.239C1484.77 250.835 1415.21 227.061 1327.25 230.447C1261.47 232.982 1198.47 243.5 1132.31 244.582C1067.86 245.64 1002.39 236.699 938.903 232.933C878.071 229.331 818.332 228.711 758.844 235.853C695.106 243.505 632.005 240.042 570.022 231.043C536.585 226.181 505.166 218.399 471.411 214.176C441.12 210.391 408.949 210.872 378.145 213.132C343.82 215.653 310.714 220.462 278.087 225.507C243.021 230.937 206.097 238.945 168.809 240.898C89.1955 245.073 6.85839 227.864 -70.9431 238.974" stroke="url(#paint62_linear)" stroke-miterlimit="10"/>
<path d="M1570.09 254.057C1484.44 251.652 1414.81 227.729 1326.51 231.062C1260.72 233.544 1197.44 243.784 1131.21 244.698C1066.84 245.568 1001.8 236.468 938.311 232.755C877.444 229.196 817.819 228.908 758.673 236.603C694.274 244.986 631.139 240.869 568.7 231.313C535.411 226.214 503.81 218.255 469.929 214.061C439.729 210.319 407.718 210.983 377.13 213.435C342.851 216.191 309.893 221.261 277.403 226.517C242.496 232.169 205.607 240.383 168.216 242.389C88.7737 246.694 6.53913 227.864 -70.9547 239.465" stroke="url(#paint63_linear)" stroke-miterlimit="10"/>
<path d="M1570.09 254.74C1484.86 252.335 1415.46 228.412 1327.67 231.515C1258.3 233.963 1191.25 245.02 1121.25 244.794C1061.41 244.601 1001.37 236.305 942.254 232.736C879.45 228.946 819.335 229.052 758.514 237.166C691.071 246.14 627.88 241.422 562.876 230.75C533.736 225.969 505.975 219.447 476.619 214.97C445.553 210.232 411.444 210.694 379.478 213.325C343.204 216.307 308.48 221.982 274.269 227.754C239.784 233.592 203.123 241.812 165.937 243.736C87.3038 247.781 5.52504 227.811 -70.9431 239.854" stroke="url(#paint64_linear)" stroke-miterlimit="10"/>
<path d="M1570.09 255.279C1484.62 252.907 1415.22 228.826 1327.19 231.933C1257.8 234.386 1190.44 245.183 1120.47 244.823C1060.67 244.51 1000.93 235.983 941.855 232.409C879.005 228.61 818.902 228.985 758.377 237.628C690.251 247.362 627.39 242.091 561.851 230.894C532.847 225.94 505.007 219.361 475.57 214.878C444.573 210.136 410.612 210.694 378.828 213.474C342.577 216.643 307.99 222.564 273.881 228.489C239.442 234.472 202.792 242.783 165.515 244.803C87.0301 249.026 5.16019 227.561 -70.9547 240.186" stroke="url(#paint65_linear)" stroke-miterlimit="10"/>
<path d="M1570.09 255.663C1484.45 253.331 1415.1 229.105 1326.83 232.26C1257.43 234.742 1189.91 245.308 1119.85 244.832C1060.08 244.428 1000.62 235.627 941.57 232.024C878.686 228.177 818.492 228.788 758.354 237.95C689.567 248.425 627.207 242.711 561.11 231.043C532.175 225.94 504.266 219.294 474.807 214.758C443.832 209.992 410.168 210.593 378.407 213.503C305.027 220.236 239.283 241.317 165.196 245.568C86.8477 250.065 4.76133 227.152 -70.9547 240.412" stroke="url(#paint66_linear)" stroke-miterlimit="10"/>
<path d="M1570.09 255.909C1484.31 253.624 1414.99 229.254 1326.61 232.486C1257.2 235.03 1189.46 245.39 1119.43 244.837C1059.65 244.356 1000.45 235.247 941.422 231.582C878.515 227.677 818.116 228.465 758.32 238.123C688.929 249.334 627.264 243.288 560.54 231.149C531.845 225.94 503.867 219.039 474.34 214.681C442.977 210.059 410.328 210.434 378.225 213.474C304.719 220.438 239.34 241.538 164.991 246.097C86.7454 250.907 4.30569 226.595 -70.9089 240.557" stroke="url(#paint67_linear)" stroke-miterlimit="10"/>
<path d="M1570.09 256C1484.22 253.783 1415.02 229.269 1326.55 232.621C1257.14 235.252 1189.31 245.438 1119.14 244.842C1059.35 244.332 1000.39 234.838 941.365 231.087C878.458 227.09 817.74 228.008 758.297 238.152C688.371 250.094 627.572 243.832 560.21 231.231C498.671 219.726 447.969 206.63 378.282 213.373C304.583 220.506 239.511 241.427 164.9 246.352C86.7455 251.513 3.87271 225.887 -71 240.581" stroke="url(#paint68_linear)" stroke-miterlimit="10"/>
<defs>
<linearGradient id="paint0_linear" x1="-1.18e+06" y1="-502.267" x2="-1.18e+06" y2="-489.677" gradientUnits="userSpaceOnUse">
<stop stop-color="#050C12" stop-opacity="0.24"/>
<stop offset="1" stop-color="#273E52"/>
</linearGradient>
<linearGradient id="paint1_linear" x1="-1.17996e+06" y1="-1507.19" x2="-1.17996e+06" y2="-1469.2" gradientUnits="userSpaceOnUse">
<stop stop-color="#050C12" stop-opacity="0.24"/>
<stop offset="1" stop-color="#273E52"/>
</linearGradient>
<linearGradient id="paint2_linear" x1="-1.18e+06" y1="-2783.69" x2="-1.18e+06" y2="-2713.53" gradientUnits="userSpaceOnUse">
<stop stop-color="#050C12" stop-opacity="0.24"/>
<stop offset="1" stop-color="#273E52"/>
</linearGradient>
<linearGradient id="paint3_linear" x1="-1.18e+06" y1="-4670.45" x2="-1.18e+06" y2="-4552.86" gradientUnits="userSpaceOnUse">
<stop stop-color="#050C12" stop-opacity="0.24"/>
<stop offset="1" stop-color="#273E52"/>
</linearGradient>
<linearGradient id="paint4_linear" x1="-1.18e+06" y1="-7786.09" x2="-1.18e+06" y2="-7590.27" gradientUnits="userSpaceOnUse">
<stop stop-color="#050C12" stop-opacity="0.24"/>
<stop offset="1" stop-color="#273E52"/>
</linearGradient>
<linearGradient id="paint5_linear" x1="-1.18e+06" y1="-11207.9" x2="-1.18e+06" y2="-10926.2" gradientUnits="userSpaceOnUse">
<stop stop-color="#050C12" stop-opacity="0.24"/>
<stop offset="1" stop-color="#273E52"/>
</linearGradient>
<linearGradient id="paint6_linear" x1="-1.18e+06" y1="-15367.3" x2="-1.18e+06" y2="-14981.3" gradientUnits="userSpaceOnUse">
<stop stop-color="#050C12" stop-opacity="0.24"/>
<stop offset="1" stop-color="#273E52"/>
</linearGradient>
<linearGradient id="paint7_linear" x1="-1.17998e+06" y1="-19738.6" x2="-1.17998e+06" y2="-19242.9" gradientUnits="userSpaceOnUse">
<stop stop-color="#050C12" stop-opacity="0.24"/>
<stop offset="1" stop-color="#273E52"/>
</linearGradient>
<linearGradient id="paint8_linear" x1="-1.18001e+06" y1="-24122.3" x2="-1.18001e+06" y2="-23516.6" gradientUnits="userSpaceOnUse">
<stop stop-color="#050C12" stop-opacity="0.24"/>
<stop offset="1" stop-color="#273E52"/>
</linearGradient>
<linearGradient id="paint9_linear" x1="-1.17997e+06" y1="-28290" x2="-1.17997e+06" y2="-27579.8" gradientUnits="userSpaceOnUse">
<stop stop-color="#050C12" stop-opacity="0.24"/>
<stop offset="1" stop-color="#273E52"/>
</linearGradient>
<linearGradient id="paint10_linear" x1="-1.18e+06" y1="-32425.5" x2="-1.18e+06" y2="-31611.5" gradientUnits="userSpaceOnUse">
<stop stop-color="#050C12" stop-opacity="0.24"/>
<stop offset="1" stop-color="#273E52"/>
</linearGradient>
<linearGradient id="paint11_linear" x1="-1.18e+06" y1="-35605.5" x2="-1.18e+06" y2="-34711.7" gradientUnits="userSpaceOnUse">
<stop stop-color="#050C12" stop-opacity="0.24"/>
<stop offset="1" stop-color="#273E52"/>
</linearGradient>
<linearGradient id="paint12_linear" x1="-1.18e+06" y1="-37966.6" x2="-1.18e+06" y2="-37013.5" gradientUnits="userSpaceOnUse">
<stop stop-color="#050C12" stop-opacity="0.24"/>
<stop offset="1" stop-color="#273E52"/>
</linearGradient>
<linearGradient id="paint13_linear" x1="-1.18003e+06" y1="-39236.6" x2="-1.18003e+06" y2="-38251.5" gradientUnits="userSpaceOnUse">
<stop stop-color="#050C12" stop-opacity="0.24"/>
<stop offset="1" stop-color="#273E52"/>
</linearGradient>
<linearGradient id="paint14_linear" x1="-1.18e+06" y1="-39812.9" x2="-1.18e+06" y2="-38813.3" gradientUnits="userSpaceOnUse">
<stop stop-color="#050C12" stop-opacity="0.24"/>
<stop offset="1" stop-color="#273E52"/>
</linearGradient>
<linearGradient id="paint15_linear" x1="-1.17997e+06" y1="-40397" x2="-1.17997e+06" y2="-39382.5" gradientUnits="userSpaceOnUse">
<stop stop-color="#050C12" stop-opacity="0.24"/>
<stop offset="1" stop-color="#273E52"/>
</linearGradient>
<linearGradient id="paint16_linear" x1="-1.17998e+06" y1="-40735.2" x2="-1.17998e+06" y2="-39712.1" gradientUnits="userSpaceOnUse">
<stop stop-color="#050C12" stop-opacity="0.24"/>
<stop offset="1" stop-color="#273E52"/>
</linearGradient>
<linearGradient id="paint17_linear" x1="-1.18002e+06" y1="-40845.4" x2="-1.18002e+06" y2="-39819.4" gradientUnits="userSpaceOnUse">
<stop stop-color="#050C12" stop-opacity="0.24"/>
<stop offset="1" stop-color="#273E52"/>
</linearGradient>
<linearGradient id="paint18_linear" x1="-1.18e+06" y1="-40755.7" x2="-1.18e+06" y2="-39731.9" gradientUnits="userSpaceOnUse">
<stop stop-color="#050C12" stop-opacity="0.24"/>
<stop offset="1" stop-color="#273E52"/>
</linearGradient>
<linearGradient id="paint19_linear" x1="-1.18e+06" y1="-40485" x2="-1.18e+06" y2="-39467.8" gradientUnits="userSpaceOnUse">
<stop stop-color="#050C12" stop-opacity="0.24"/>
<stop offset="1" stop-color="#273E52"/>
</linearGradient>
<linearGradient id="paint20_linear" x1="-1.18001e+06" y1="-39840.6" x2="-1.18001e+06" y2="-38839.5" gradientUnits="userSpaceOnUse">
<stop stop-color="#050C12" stop-opacity="0.24"/>
<stop offset="1" stop-color="#273E52"/>
</linearGradient>
<linearGradient id="paint21_linear" x1="-1.18001e+06" y1="-39414.5" x2="-1.18001e+06" y2="-38423.9" gradientUnits="userSpaceOnUse">
<stop stop-color="#050C12" stop-opacity="0.24"/>
<stop offset="1" stop-color="#273E52"/>
</linearGradient>
<linearGradient id="paint22_linear" x1="-1.17996e+06" y1="-38895.8" x2="-1.17996e+06" y2="-37918.2" gradientUnits="userSpaceOnUse">
<stop stop-color="#050C12" stop-opacity="0.24"/>
<stop offset="1" stop-color="#273E52"/>
</linearGradient>
<linearGradient id="paint23_linear" x1="-1.18e+06" y1="-38343.6" x2="-1.18e+06" y2="-37379.7" gradientUnits="userSpaceOnUse">
<stop stop-color="#050C12" stop-opacity="0.24"/>
<stop offset="1" stop-color="#273E52"/>
</linearGradient>
<linearGradient id="paint24_linear" x1="-1.18003e+06" y1="-37758.4" x2="-1.18003e+06" y2="-36809.1" gradientUnits="userSpaceOnUse">
<stop stop-color="#050C12" stop-opacity="0.24"/>
<stop offset="1" stop-color="#273E52"/>
</linearGradient>
<linearGradient id="paint25_linear" x1="-1.17998e+06" y1="-37165" x2="-1.17998e+06" y2="-36230.4" gradientUnits="userSpaceOnUse">
<stop stop-color="#050C12" stop-opacity="0.24"/>
<stop offset="1" stop-color="#273E52"/>
</linearGradient>
<linearGradient id="paint26_linear" x1="-1.18e+06" y1="-36387" x2="-1.18e+06" y2="-35471.9" gradientUnits="userSpaceOnUse">
<stop stop-color="#050C12" stop-opacity="0.24"/>
<stop offset="1" stop-color="#273E52"/>
</linearGradient>
<linearGradient id="paint27_linear" x1="-1.17997e+06" y1="-35834.5" x2="-1.17997e+06" y2="-34933.1" gradientUnits="userSpaceOnUse">
<stop stop-color="#050C12" stop-opacity="0.24"/>
<stop offset="1" stop-color="#273E52"/>
</linearGradient>
<linearGradient id="paint28_linear" x1="-1.17997e+06" y1="-35343.6" x2="-1.17997e+06" y2="-34454.4" gradientUnits="userSpaceOnUse">
<stop stop-color="#050C12" stop-opacity="0.24"/>
<stop offset="1" stop-color="#273E52"/>
</linearGradient>
<linearGradient id="paint29_linear" x1="-1.17997e+06" y1="-34960.9" x2="-1.17997e+06" y2="-34081.2" gradientUnits="userSpaceOnUse">
<stop stop-color="#050C12" stop-opacity="0.24"/>
<stop offset="1" stop-color="#273E52"/>
</linearGradient>
<linearGradient id="paint30_linear" x1="-1.18003e+06" y1="-34633" x2="-1.18003e+06" y2="-33761.4" gradientUnits="userSpaceOnUse">
<stop stop-color="#050C12" stop-opacity="0.24"/>
<stop offset="1" stop-color="#273E52"/>
</linearGradient>
<linearGradient id="paint31_linear" x1="-1.18e+06" y1="-34477.9" x2="-1.18e+06" y2="-33610.1" gradientUnits="userSpaceOnUse">
<stop stop-color="#050C12" stop-opacity="0.24"/>
<stop offset="1" stop-color="#273E52"/>
</linearGradient>
<linearGradient id="paint32_linear" x1="-1.18e+06" y1="-34411.5" x2="-1.18e+06" y2="-33545.3" gradientUnits="userSpaceOnUse">
<stop stop-color="#050C12" stop-opacity="0.24"/>
<stop offset="1" stop-color="#273E52"/>
</linearGradient>
<linearGradient id="paint33_linear" x1="-1.18002e+06" y1="-34202.2" x2="-1.18002e+06" y2="-33341.2" gradientUnits="userSpaceOnUse">
<stop stop-color="#050C12" stop-opacity="0.24"/>
<stop offset="1" stop-color="#273E52"/>
</linearGradient>
<linearGradient id="paint34_linear" x1="-1.18e+06" y1="-33879.9" x2="-1.18e+06" y2="-33026.8" gradientUnits="userSpaceOnUse">
<stop stop-color="#050C12" stop-opacity="0.24"/>
<stop offset="1" stop-color="#273E52"/>
</linearGradient>
<linearGradient id="paint35_linear" x1="-1.18002e+06" y1="-33402.9" x2="-1.18002e+06" y2="-32561.7" gradientUnits="userSpaceOnUse">
<stop stop-color="#050C12" stop-opacity="0.24"/>
<stop offset="1" stop-color="#273E52"/>
</linearGradient>
<linearGradient id="paint36_linear" x1="-1.18e+06" y1="-32828.3" x2="-1.18e+06" y2="-32001.4" gradientUnits="userSpaceOnUse">
<stop stop-color="#050C12" stop-opacity="0.24"/>
<stop offset="1" stop-color="#273E52"/>
</linearGradient>
<linearGradient id="paint37_linear" x1="-1.18002e+06" y1="-32138.5" x2="-1.18002e+06" y2="-31328.8" gradientUnits="userSpaceOnUse">
<stop stop-color="#050C12" stop-opacity="0.24"/>
<stop offset="1" stop-color="#273E52"/>
</linearGradient>
<linearGradient id="paint38_linear" x1="-1.17999e+06" y1="-31367.4" x2="-1.17999e+06" y2="-30576.9" gradientUnits="userSpaceOnUse">
<stop stop-color="#050C12" stop-opacity="0.24"/>
<stop offset="1" stop-color="#273E52"/>
</linearGradient>
<linearGradient id="paint39_linear" x1="-1.18e+06" y1="-30492.2" x2="-1.18e+06" y2="-29723.6" gradientUnits="userSpaceOnUse">
<stop stop-color="#050C12" stop-opacity="0.24"/>
<stop offset="1" stop-color="#273E52"/>
</linearGradient>
<linearGradient id="paint40_linear" x1="-1.17998e+06" y1="-29519.2" x2="-1.17998e+06" y2="-28774.8" gradientUnits="userSpaceOnUse">
<stop stop-color="#050C12" stop-opacity="0.24"/>
<stop offset="1" stop-color="#273E52"/>
</linearGradient>
<linearGradient id="paint41_linear" x1="-1.18e+06" y1="-28514.7" x2="-1.18e+06" y2="-27795.4" gradientUnits="userSpaceOnUse">
<stop stop-color="#050C12" stop-opacity="0.24"/>
<stop offset="1" stop-color="#273E52"/>
</linearGradient>
<linearGradient id="paint42_linear" x1="-1.18e+06" y1="-27427.8" x2="-1.18e+06" y2="-26735.7" gradientUnits="userSpaceOnUse">
<stop stop-color="#050C12" stop-opacity="0.24"/>
<stop offset="1" stop-color="#273E52"/>
</linearGradient>
<linearGradient id="paint43_linear" x1="-1.18e+06" y1="-26331.9" x2="-1.18e+06" y2="-25667.1" gradientUnits="userSpaceOnUse">
<stop stop-color="#050C12" stop-opacity="0.24"/>
<stop offset="1" stop-color="#273E52"/>
</linearGradient>
<linearGradient id="paint44_linear" x1="-1.18e+06" y1="-25177.7" x2="-1.18e+06" y2="-24541.8" gradientUnits="userSpaceOnUse">
<stop stop-color="#050C12" stop-opacity="0.24"/>
<stop offset="1" stop-color="#273E52"/>
</linearGradient>
<linearGradient id="paint45_linear" x1="-1.18e+06" y1="-24028.3" x2="-1.18e+06" y2="-23421.1" gradientUnits="userSpaceOnUse">
<stop stop-color="#050C12" stop-opacity="0.24"/>
<stop offset="1" stop-color="#273E52"/>
</linearGradient>
<linearGradient id="paint46_linear" x1="-1.17994e+06" y1="-22902.6" x2="-1.17994e+06" y2="-22323.6" gradientUnits="userSpaceOnUse">
<stop stop-color="#050C12" stop-opacity="0.24"/>
<stop offset="1" stop-color="#273E52"/>
</linearGradient>
<linearGradient id="paint47_linear" x1="-1.18004e+06" y1="-21696.1" x2="-1.18004e+06" y2="-21147.2" gradientUnits="userSpaceOnUse">
<stop stop-color="#050C12" stop-opacity="0.24"/>
<stop offset="1" stop-color="#273E52"/>
</linearGradient>
<linearGradient id="paint48_linear" x1="-1.18e+06" y1="-20953.7" x2="-1.18e+06" y2="-20423.3" gradientUnits="userSpaceOnUse">
<stop stop-color="#050C12" stop-opacity="0.24"/>
<stop offset="1" stop-color="#273E52"/>
</linearGradient>
<linearGradient id="paint49_linear" x1="-1.18e+06" y1="-20037.2" x2="-1.18e+06" y2="-19529.8" gradientUnits="userSpaceOnUse">
<stop stop-color="#050C12" stop-opacity="0.24"/>
<stop offset="1" stop-color="#273E52"/>
</linearGradient>
<linearGradient id="paint50_linear" x1="-1.18002e+06" y1="-19309" x2="-1.18002e+06" y2="-18819.8" gradientUnits="userSpaceOnUse">
<stop stop-color="#050C12" stop-opacity="0.24"/>
<stop offset="1" stop-color="#273E52"/>
</linearGradient>
<linearGradient id="paint51_linear" x1="-1.18e+06" y1="-18720.3" x2="-1.18e+06" y2="-18245.8" gradientUnits="userSpaceOnUse">
<stop stop-color="#050C12" stop-opacity="0.24"/>
<stop offset="1" stop-color="#273E52"/>
</linearGradient>
<linearGradient id="paint52_linear" x1="-1.17996e+06" y1="-18230.9" x2="-1.17996e+06" y2="-17768.7" gradientUnits="userSpaceOnUse">
<stop stop-color="#050C12" stop-opacity="0.24"/>
<stop offset="1" stop-color="#273E52"/>
</linearGradient>
<linearGradient id="paint53_linear" x1="-1.17997e+06" y1="-17814.7" x2="-1.17997e+06" y2="-17362.9" gradientUnits="userSpaceOnUse">
<stop stop-color="#050C12" stop-opacity="0.24"/>
<stop offset="1" stop-color="#273E52"/>
</linearGradient>
<linearGradient id="paint54_linear" x1="-1.17997e+06" y1="-17476.3" x2="-1.17997e+06" y2="-17032.9" gradientUnits="userSpaceOnUse">
<stop stop-color="#050C12" stop-opacity="0.24"/>
<stop offset="1" stop-color="#273E52"/>
</linearGradient>
<linearGradient id="paint55_linear" x1="-1.17998e+06" y1="-17490.9" x2="-1.17998e+06" y2="-17047.1" gradientUnits="userSpaceOnUse">
<stop stop-color="#050C12" stop-opacity="0.24"/>
<stop offset="1" stop-color="#273E52"/>
</linearGradient>
<linearGradient id="paint56_linear" x1="-1.18003e+06" y1="-17961.3" x2="-1.18003e+06" y2="-17505.7" gradientUnits="userSpaceOnUse">
<stop stop-color="#050C12" stop-opacity="0.24"/>
<stop offset="1" stop-color="#273E52"/>
</linearGradient>
<linearGradient id="paint57_linear" x1="-1.18001e+06" y1="-18448" x2="-1.18001e+06" y2="-17980.2" gradientUnits="userSpaceOnUse">
<stop stop-color="#050C12" stop-opacity="0.24"/>
<stop offset="1" stop-color="#273E52"/>
</linearGradient>
<linearGradient id="paint58_linear" x1="-1.18e+06" y1="-18942.7" x2="-1.18e+06" y2="-18462.4" gradientUnits="userSpaceOnUse">
<stop stop-color="#050C12" stop-opacity="0.24"/>
<stop offset="1" stop-color="#273E52"/>
</linearGradient>
<linearGradient id="paint59_linear" x1="-1.17996e+06" y1="-19450.9" x2="-1.17996e+06" y2="-18958" gradientUnits="userSpaceOnUse">
<stop stop-color="#050C12" stop-opacity="0.24"/>
<stop offset="1" stop-color="#273E52"/>
</linearGradient>
<linearGradient id="paint60_linear" x1="-1.17997e+06" y1="-19921.7" x2="-1.17997e+06" y2="-19416.9" gradientUnits="userSpaceOnUse">
<stop stop-color="#050C12" stop-opacity="0.24"/>
<stop offset="1" stop-color="#273E52"/>
</linearGradient>
<linearGradient id="paint61_linear" x1="-1.17999e+06" y1="-20381.8" x2="-1.17999e+06" y2="-19865.4" gradientUnits="userSpaceOnUse">
<stop stop-color="#050C12" stop-opacity="0.24"/>
<stop offset="1" stop-color="#273E52"/>
</linearGradient>
<linearGradient id="paint62_linear" x1="-1.17999e+06" y1="-20805.9" x2="-1.17999e+06" y2="-20278.9" gradientUnits="userSpaceOnUse">
<stop stop-color="#050C12" stop-opacity="0.24"/>
<stop offset="1" stop-color="#273E52"/>
</linearGradient>
<linearGradient id="paint63_linear" x1="-1.18e+06" y1="-21194.9" x2="-1.18e+06" y2="-20658.2" gradientUnits="userSpaceOnUse">
<stop stop-color="#050C12" stop-opacity="0.24"/>
<stop offset="1" stop-color="#273E52"/>
</linearGradient>
<linearGradient id="paint64_linear" x1="-1.17999e+06" y1="-21567.4" x2="-1.17999e+06" y2="-21021.4" gradientUnits="userSpaceOnUse">
<stop stop-color="#050C12" stop-opacity="0.24"/>
<stop offset="1" stop-color="#273E52"/>
</linearGradient>
<linearGradient id="paint65_linear" x1="-1.18e+06" y1="-21847.9" x2="-1.18e+06" y2="-21294.8" gradientUnits="userSpaceOnUse">
<stop stop-color="#050C12" stop-opacity="0.24"/>
<stop offset="1" stop-color="#273E52"/>
</linearGradient>
<linearGradient id="paint66_linear" x1="-1.18e+06" y1="-22091.2" x2="-1.18e+06" y2="-21532" gradientUnits="userSpaceOnUse">
<stop stop-color="#050C12" stop-opacity="0.24"/>
<stop offset="1" stop-color="#273E52"/>
</linearGradient>
<linearGradient id="paint67_linear" x1="-1.17997e+06" y1="-22239.9" x2="-1.17997e+06" y2="-21677" gradientUnits="userSpaceOnUse">
<stop stop-color="#050C12" stop-opacity="0.24"/>
<stop offset="1" stop-color="#273E52"/>
</linearGradient>
<linearGradient id="paint68_linear" x1="-1.18003e+06" y1="-22117.2" x2="-1.18003e+06" y2="-21557.4" gradientUnits="userSpaceOnUse">
<stop stop-color="#050C12" stop-opacity="0.24"/>
<stop offset="1" stop-color="#273E52"/>
</linearGradient>
</defs>
</svg>
